' Generated by UML Generator
' Encoded: xNrhSnmtbkLt_mh6x9VocDG2I22HgUrnjAo7vLtBLejojzqJ4nqbCYNMkbX5LnNrwDwUtxxd0BW0igfOfDoUYPrOzKnOp4ma7XVtSUu3MRzVRwQhpVNb_BFrpxF5rNGrlJmwcq_NwmURpMhswdepV7EsN9pE_ZeSgSykPkV3qTbiTJOVFliij3fwDYoklrbSNMyUd4-lDiFgw6-V7HrziLbUdrqyMhvRJDPdgs5O_7Z_QBRO71_5gv_IrTKI_mohT8MnDij5kFZy_j6hvN8-J1VixEVXG-WA_vujpuSzBT3jSZuVpYVJo-NrOeFHNi-NK_GPhtzArzLBVvVvVpsz71uk5vlGGPpzoHdkhQRtZxvVRIwMRrRJgulPsSDmZq_VpePtLylLvlxH7zDVl8k1rfZQuyLcjld06u44VnpEDaiiCFxR7FtBqM9u9rSJTNp4__yyllzsEBqQXlCqLpIrIhqEZsQBFo-Nb-M1kkVYW-dxyGDxBxw1BNqpR9ulrxFDZ2ID0vhHy6OInZqX_SP4cBoTWIEcyp_DpZSNcPJfvjDXzkPY8mJbowjX3UwOl8kjmrPUf4PnezukP-TiU7rrFjqCa_DXlfcM7P6d5zF5-NpuNyE7LylfwZomr4rDryFcPLZXv7sUteUzpRx2zf-l9w1WuGbS_5Gkfkz_h2z-sktcD-NbsDbg-kODkFMk_UtfueUh_rSb2ozXPwAuJ3w_GOZOHAI7ZR8aZUJoDAmfokGRN3_zuT7zy01_a9Ulv_CW1jVppUngFhpdWWFZF2jtgdPlHbn-VrlqSyClDhEpdr-0LNSaxejXyMQs26BEVqVo4oSRXEgBzSNotQHYeTMmE8TStS3ETnQWgobqpBZVzVNbw0urT7rzFbjVBQkN_bxhxPg-bxWEz7qM_xYLi7dnfQV_0eiFOl5wUZOSVVzgFQpU9fN_xyl5uxV3OZCP-5_iB__PeTbtm-RTSlNprwlbkyt5wOVrPhYCvYxq-dOwJylBfDdpmcIhRL32KJC-6XPGs1yUJJVJITJWfrUh6Tam_diC1eLDnimUJg-cPsXw_-YxhJl7rF2feoqA_hUhrV9iMA-ZYPeCuH-nMBjhJHslumhFfgjNoyKwT4bvu3qeKaZpV7GphLjUdeY563QxBFZu_MOrFQE5keMMQUApnPi7gzNq0tbn4_vA1aqk9sqnQTkTxwFxDaNYAxJNDn0biF-BmC_Lb4zUJJTd5x9BN_7YTXGHHMUxlqYlsb2-d5qEEr9pS2kFZsvwCQ_Zs-c7OVLmUKcuX_McBGxNmsJGfQV1LBG01KiNNysMbqC2UyFbrOWnNl7PomzN6Fyh-RFIms7fuS51zdWqMmrX0-Cevt8fc2eE-BS0eOx-dZlEhzsHzsBlg-dvx7hCtf7bens8jrt5zVLzlOVh3ex-6xBGVqtkYNi8eLs-Ywy7B-J7ok2-pdT_shwB5V-uvzvEkocxVmcflbvXBUcFRJwiPd9mouAelfpDXxX5mlcfyw1-VfU6-BA64l7Mqs5wVkCKjhe-E8qutT-GVtOx_4_YecIaad1N5cjaILAhmz9qlLYCg76ZFQvRti4Wh4Bp6wt10mZws-4bSAyulKjqnkkayEJFUuyUFtdmmxSlyppAcmSNzdnEIJlTO2FglRuAjsjVCtIwqphsFJq_7yvVBYDYdOm1x0tEsTxznYJfevu_MIqlR-liJcXgho3T829ta8n7mzNcGhZfAe79BLx2xODz9BpsPBvyTmixNGpliw69PcCRz9LExW8z3eEnPzEhgs6LeDZVe1NXeVmTJbxqxn_YyVqZAkJb0Xt5nhyJxv_QQElPFK3B9ylLH9hS2wDyFkfy7IY-l-ku6mSwZWtsTHl29857ztVzB3y_q7rfj6-8QHQk_KCKuJimH6cqRuW0SFRt7d3DWOx3ytrz1gRTtsTWt0DzXkTxgJssB3UGVDpe4Dt7BG-E-FmWSpxRRdQNKG-nQp8WDz4lF3n8mT1YNy_YSwttzvrTdGEzvpQ7-XSFxl0mqkeEeqdJGuC-MatV7HwGBUum69lj6sZ8W7Z_C0Km7nYaDDgxzQA7RzXyUNne-wNDlluhXBX_XAh1WJ6gLlj68NwU3pV9wCFqz43_qaGwt_7akKMrCy_hVVxyzlsnIy-dXq5Baj8ur2-Z4LQZg_SLOEVrXwth17EgDpQL5W1MgAws0OFSlyKDUpDRRrOVjkpgpQYv0lPRXlAh7Vozh-qeIR2lmSNipSMSqQ-2x_Or6oF0xRNdPhF5R5F7mogHkI4gA4nKV3fUvU0kHdezdQzBu5FQtyrr6hD6Y56lRmxcVBwN1xPSfZljSy4BQLrOo-fqc4CYzotjYolqinxE6He_zFo7gxrFBuRvpQzMeNZSFYcHWpB7mmXrIxdN0bsYWhj2lU_PMB2bnU6mIM2uhwvdytD9bcMcsbmCtonmiJZBB2uD2uEENOOjpZqPlJKfdaLOuse0SQAZEdqr7oQ_f72nP3bYdFdRp337HyKFE3wwMNNWMNGwda_P-XJaMBpvl7Alqj3FFfmDyzdrvSx0jVDw78JkOTYFwiQpk0iIaRsfwySIWTmPun_fDNgzan1C-OEaYtZn8bs0S7yeVxxOxO-3FIsgQRBpC73lxkteaexlmn-DiRzNLNGG0syxFx6f-Fz37LdO5zrcun9shff7sNWGqbLfaKacgdktzZDkKDpfFSyhzHkbOLAxo2CMtzzyfzKeuZ2Abf_iCHYtkATr7tSCzPoS3w-dqBZnrSd8YbMj5ipRl5fIVBAiG4MAd8roX2UlkBR37MxvoADMTmWmFPckDzyjP-lXMmapd5oUXWHxYjesZGytdwo6Nww7nLcDF-uf7LFieOSOoyv_ea7--zxtLyFYT4Op-Dw4DruikQ7B1PysZ-uVZQ_nxlZ6lU-MCPDu-N8rNQnVBrUNykRM3KQKndVkFOeRipE79rGZqtcSTtM1BgghClJtkFLsoF7l9jpyTdfslPYkWgm9OKogCBZyUZfRxAb8-5F8tGtdqA9GzRby898qDdaE_dY-NBpPRP8xJtCCsNkqBYtqqNy_qlTy6kpXC9zVpwUhHxCeEK-k5sTHlz_qXF3vXaVt7b-VpMVdOC_JNqQzlnXW71QHbBltgXxBpNlI-QYZ_pdRG4oVBSzdhsSKrxmeMVQZvIMe-gVfwYgEDhv6o_6DNTOBJtuxBYh3FM26Ptk-MNDzpUm9zQLvL5hz3Jkk6-LCgtjZZC9Vhuznh--rjRPhTUERJeTRJMVQhh6DQLgd-jZAD9tlNMESrgRpuLwhEjzgQtg5FqnyrVTDuvh6AjDhqxWRx-rxTzyO-wQoE-7nklJ-PYStjDiPzMJliBkhEDbUnWqhEzbFWfqnJlQJO7VJJkwokWCDxpRooPtNSd8dwkW30-sTqQzUuhwDFhaZVvtSbLzFxYe09tSKg9Cxo-SdCVuanf_4-9COVnBZJsByIOm_YV4dCVuanf_4-9COVnBZJsBy_xiOtr4-xofFTnI0EtFDdHl-0s_lRtU7rSMgxHn6V35TdFznEDkA8g8huvN2DkY-IrDeJUUiwhLiGTkethGcBmLZzerEcwOizyo1CLhXqLvftVecNhg-DywWUUgzmtQtocYVcliEJD0fqtMH-qpJj9tNtiOrsTQstXYVveA_qB_kqykjqrQZGP_cvXsvi-jTOel6TnPlTsbRhLUsQsJaplQ-yousvamn2gQA6QJdlbVMk3wkq_hMWzpMfjOToAtIj75fCHCBAL3fkl5z1y8qLeZcb5CDrYb4SXeRrpM9Y7rdT8lP9WNiZMqmEUciPR-TqaqR7plVcAu1COGAZG8hgD8v2AgiCqacjMPVogLB1HPfM-TrawIkSvr2Xr7yU--mwCQRH2N8PuEkVPiwztXLwGwpZVjbZR56DxqL4MwRrgiuKGrzqQfMTq85R6SFjerRhK4zqCGB2J5eRp1BBVI7kkcTYnqxi6YddVL98NKjDrCtIKIiSoIXRULnXsLXYsGLNUjwtMZCDOsbbEwnOMsSA9HQRrrdbV1utv8Ld1VMW6PjmIzTN3GbmYZVsBGVtZMwStcm5jpEoLcvxWq7GvUnEPXVQpoNTMiGpQ514cq87wJ7Oi9nC6nUYyLtQGCi5AvlhHADgq5jxwrMYUSxRY_cBqk1ZWPlQ15FN7gBoIkNnTLOPNqVDmKyseFH8LA9KXnOORXir9nts4AjihPeeQnrOoBhWcQuW90w4IBNUnYEHkIaW_O0FuaUwy2wi1ug4yDv0pA3f74wq6MAgKINfzj1-LZVo4OxXzRWNYt4XEmuvLqMhCuhR6Kd9iPf1OPESjT3LoXDunOLH4_p0sqYl0yfnD1TBuBLzj09VIDSr6cm7Av5eMCgsEL62HT26fHj8BPDCjMDewouk3Rm4qIdwJid-WT2sc0xnHH02q9M-hmJ3RLRBto1--1PRzA-OrdWE6oLw55mHEkoFeAQRHgCrqHnQbiORTMaTprM3K8PBJ8EXG7sZ3gQ_6lHMsU40pjjiICgxb5OjaBN9gfupWIgHojNX9wYWGuJls9QC2TQn1pF8KtUTt5c5ck2-8dAW2u7RtcnSUWMEi0c_O9NkMPlyb0m3mfZnRQmQ2rqi0WnDAPjMh1odAOZ_e1QIMfFQ-TmtQPPMQqrc0xI4VSAgif1GcLl-4Hrjad8cYAjm3QovY3nM4T2IjWeXSrkyqn0KUo6aaN2Xfi6rFV2Pp2ukhKWQ-Qx5dhK9mB325a7cwjqKbwmBY1GbWcGZp0jJTs1wHGiMp5xK2rWZgwH_K0BWBkkq1HqwaMWUaY8wQ0Saqe7EKqGoZWs32h8XjMrmfLKl4O9atOTDRFrYJN0Zs2yfX67160F72ssfV7i2SgbpV84-I00oV86rG604wKNMiE1_JF-SLIQRLQxr5IOACGgKgthcXvcBraVI1Vu5aoRfQlrvAw4UWni3mGW6N_I5kBMwFGkj1IrdgW9aBC1ZsTfKbYIrabuC0ucPhkim7036b9qXgAzXKQ4Ia_2fg12LIjhzk2C5jijBW1CAYotpwm1PQoBImRb057olXVrgDe0ZxAsPa-KLQ4uz3LuCw7j5j81IzgcIu-_7R2U03EeDjkB4GDne7MD5_61pS5EYGC28OCLR9si4Y0FsiIeH5tiWhEQfadCDQODmNT9l03QMWLLQhrexOPgrFYar87xW0fRyMl1OmHJil4QuaUHwViCzC23G53nTU0yQ1pWX-J50cl2PlOs0r9Csq2H9rkFZgaM4W85A00a5VFH4y30tcX1Li0tna8D9M7fkLL5gM0IC2SmEidJQfN7r36ye5TiFQObvWRw6NeOkgCLfDQ3tpN8ahGCk19zT4aMFTOWiXMLE85Q8yBL4c50rXE6wRsXUBG9SXeY60rRBP47y0n0lM0p1Klb57WpmIsOCN2mDK9X41iCu0fT812g5pkeg26Qx1A05HgkNVO7oWPUX6k53g0tdOHM48uZE8Cy2ZhhW9F93yeACiTp0B9ayY7NhS8MvfLmeXbKGZQnWJRv5s1GHGIHqH9vbYfFN3Iy3INbEr6Uoj26WzsIkC5GTKG06NrWbP0-dtW7kzj1jBCKm8O0DqhlU0ZC2PGPfmgGXUq5bC-JSKJ3MPYnUuRIsGgMCaGh1kOsxJyu6MJKIM0n6WZbZSmD7Dys725DXW0NLCqE3I0bZ4IJgKwKI9sPWIHCBVfCGWXGqmTlAOa5r27rl4aB1roWeah-30G6hD-rQSDRS5r712uw4V97CT4PqK8vUD4yjbNGwPrFHWDYt5cJL1GMGSESE0621atIsyJYi6c6Z9OC8MGDaWbEYy89E43pduqBL1rKJkiQiLI4HqwGHWUgGxQoHqO_LJMo84Yf0TnGWeYmG6YSDgbqB1_DORJZ5I07ZBb99X5m6GzXmiKpeLx4jcMRXyL1rgniMuCbjW07BaqCcXQzQzUNHH5I9_xacc2klHYvdWm1uo90WxO7bZ_9BUmGtHWeyjWtHu4EiWbx4L9Y6tBG2gYkuyB4K7KmL7qX4Rg2TH9V7FhOqEjAdG7RGluR9nI4KeGrWBNf4X8d984ePvSAyuHuo4BWyC3_0wzcn0JzHSKgAiNH66Nq2t07bmB3PVyE7W1qfnFaW6b1yugsepM6Y5lnUO2m0ASuPZRYhYVl6q7Js22em6JoqSxG0LCI57Rmi02H6ucb0Np3aHMb0Gjju61RbJrig7KO1V7GZCSwCG4dkm9RIcebuzU2n81esLzt0QVaI20WJ0VrsCUvG4bQcCrUDetc7K9Gt3LBAzzvGQQC3JLjzhf3Q0Y-cnKBX7K1R-Wachxbj3eZAWKIP-bkvfLZZmmSL_6w0LDTDadHkQFq6jacJ1OAr3D68BeSVWeWlqGbGPOcncjeFUcBWVJfcK6_zBgpMQUZ2OTAH1Gk2cGd4yhJwGIaIuI29zVXVpRXMB0IF23mf30KGHISpAHwiJiG3XhVz7BhoHmffWMFXTQi614WUUncB_WHlDV0tdNYeXlkPWlswl8UDcpGIbIhfzyAppH5jNJ3e4rIlPXAG7HYOtI4vqhse8Tz8SPB-WEQ50gf4qucZ8CnDkAECzO6grE5TtLmBb9K1beBkgcJh0Pc0R9tAHP4KmF7nigo6-XU6cUHQSW0r3XmMVOq88A0CyaHXFNorFe9jK5hCfBHMP-TlRubWqa4YAm7mHLlcV82evBX3ncNiKC9YlKk19zoC1QECz5_MyKnFKrePX-eCnXlqG1jC12sJT2C4WTxg7EGr39G072GkAbZG0wgCLaqyYrdcrm48XYZhQWVQ3u8D6oUx2Yb5dvIKiCmW8vM8cq1b1gHd30BL29S1gypyiPsm8csEe4bQcIulad5Ux8n-5O95kO6OTMDn0MmuL3huXv02nC1j5dZGvxx79l1Sc7M0A2IRGQI9QGGwRO1jva-sS6E3XamVzfkk8dG4zde0zN28MWPPKYYpvWOi5LQjMUoW47JnEN0CGoe2eI4QmUPoeYpeseWjXRt16eDGb7S9AmH0jgc0AkX8k7Aadc09eTo49m5tvsAmekM2hB984QN8yEUOQeSyiAqmBlEv0WuRQ4H-EeO8oNqI7mU92WWUy7ID1qbD0aj1fXk4vsWd9lWOITdtzDAzJvv69WcW7gJXG1_GNiJCWcRWcyxqSUCRZKcWnWFJmCWhvMHeUeLVI66uxC8GaeOhakx07yG-zk8TnbSURhmEL2DlxNsnaWS6uI71X460Hj2xSN4Gr1LXhhVkAoCeAsf5lliRZb66apslnXIramkc391RBgLD-1COJbQ9z-WurZ0QYhxreGaAeiMH1e8ln661OEXCubqWDJWRSX3Sg1QRegouX33nWCmIqw5p6Y8dSHoWLAURcbEN41TE0PQXL9m_T27y7VFW2qGJPEKjYOarZu7FHNJPlbjWa_uG4fBk9gHHnK7Op2RRYYzytH9cAzTXW0jh4DFZrocOg4J9Dq3IzRGOH7cXeA0zd6Dx1ct163TvSWXUWT2JT1NCxA7QGkh0tlqO4a91q6LTDHpoG30CFKqHPMNq1C72bWb-HeZ6W44nw9iucMeSiRmjR0UW35s6tARS11TE6zpUeuXSIYRn9WObEYkY0cC0uIXInbIA6geLugzc1f0j8wkc8JpG1N0CCbICHhX2Jvo602sZ66U51IZkmgND3bMe81BY8jwZFQvxoKnYKM1oVgcoMO6cWcgBEaAXxQ0RmdMcfWwW8OGfcFo1XCJfZCjKmcwfA5XMj23v9KKzMsRmugObzAChuf6Pl0iMtTCb87wDkqjN1pkUuOiX07eJE0vjaO1hoKCspBwmXnA8p2oeq8NAAU2XmITtHRJJy6pcQ0mQHG8mNhGtfw1U9kJZXYgoKuH9WhUIcnaAGjGs5wK3BG50mfjdyEXS8ia_CEmTaDqbqDD0BjQjuA7m0HCXUXCKMWSc3s9s33t0Dx8RY83MtG7HJomjt3HqcQ31O7jRDuEu1N3gGfoXxu0I4WsggF7h2Ms3Txk6IDCyKemYQ9YRYL2WYL1r3fRz7Z7z9bOA9fQpBFlSs39ODKsHUEuMzY-hDgmMorZ1HBJXRF5Z8zaZuaWWPqasap8v8qGf0-FcqPGc-yOY5Az9370_LJHugB34hQCN4lOYLt1Q8iWGgL2pA2_TVOQQJpfWcubm_EPccPyfkRuI8V_Zz-EFQalTBmkJz9L_T-RRvriD_YuGTJnfxbzcjj_wjpgPgFNJlOy2Q_TK73IR1USCC8DeDzrELgcEzimkPhiFX1j20IyZaFSez7fJNOKuVCnc9zTUqC5rHCIvHS00Hdyb98c-DFGRla5w5p00PXLBo_G7mPO5I0BZwk38jRYxS5pXCEWOc0YZj3IWL0vZeB_0R1bqyhyA1rKdL-WBzepEflm2MoGOHpQIJgbPMOXnZAIkOKjXdd96Kayjqm7vvYxOsX7HUGlkNeuhAh44d79379AVcFEtYgNwY-YARGXLINehGNeWRCf-jMovCMPL7SILW53mke5BzK239Z3W2OpRx4DAQCGFK0WC6o5s5QhcSgtEMmAAmGW2M-pcX1qFvrG2PL2bxikmHky3ezGC5oaOiDg19_YlInKSQnDakN3d2Y6DAMzfOkfZL5IweOzIM7ea8w1-JLEcaV4nB2uJz4HXSPmULKEhdWIYmIn-HNWQEmCF1sJetlqALpoOx7Xh2-eDWqk3R0zw6HIpiY6xB7F0BlL32zrPOYUoMf56vlz81rgGZ8g8TLTazpuI6f6E1doaeGcE1mMN_8UW9GzsSDN4_CEo3G0z9mGwB2ELgMG1p0potbK4IBG0aYvan2QOqcJrzbTm_1C6oPl8EqOQ6Cb0Q9P5m04PKfOFRWsVPid1PGUVCOsnKwOe6a8fHDSqynrzyPLz0Lx4Slt9RS8rD6slIjnQar1AjiEK07HTutGqu7WJ3-bK3PJMmmWcwviYQ5EipvxmfvukFCfQzuGC87tch8G5aA5H5UAlB1e3wAHijDWv93_DraoUYRwe2yaca80rj2v5cZPqR6sgUGWkbTqjIp3pTdBQI3_uls29PZIYo4kbO97S6exL-hhMgQEGOxYba8WNCeNft6P1D0b14nFrEUALQOgw1ZNAmUxjdJr9DGFBG3GdN8Gy5Pw3ccppc5Y6VEsofKkwGiB1uGq3s5dcPEZB-1YgeBglyS6eqb2mvYV2qnJoJcc1Bf82PQ17c9qIIfUuAxhaAOlYehucCd49DPu0-lgKjm53Y5ulsnVmAuChHBVvj9RRA3fSsJLGhKqRSgzn697M3qgb-IoGcxWYJUI4wVkXQvfitB3Hh0-Kakc20OB7fU1POlviH3_S269x2hJ2hvJgicP3fPCMBZ6eY5PZE1IBKdo2XNBFzgynInLX7kNL0VhrKm3Xw2OWPwENb1YINomThXdOWMmRaPnMrM94_r3y46nyCmEMvCAaXZduGxt9ey1-L5qFYLb0yU12IOj2I5FHKtLK_ZGXCHQcsjuGXMEbrBJDbIrkiuLhU0P2eMwJvuDC468LgKCA1KLSKibJKnmT2PNFZ7Ao_2yoIvoH-DH5W79KYmh5Fk5LNOiLP3yBjKSFCQiS2t3aBqJ4C6osW1Sili3HwwJP61Amcd64xCV7kf-KnwVQuQw05TLWk6O9uFgaimj53Z3QKbOMQlhjFEkAHOP3-5RYz5eWoocO6T8Vb5QRIg9IpvqupXeBXXZ647PN73C8BrLiGWlsHdBeeTStG4knyobGepJ0SXfiv5XTWnGe96CHy-Wjiys74vsJybhsm92c2VtmgzmuQ7LiaI0HW11rQwrFbJ2In6XOKA69MzEyfwSlIjopTGdGvUvFBHZm1SYaS91S639baMTOGyO4F5Im-0OEs4mnaZsaIMCoXNv2Rh8sn8OzU0hm8nShSma3XZ9sGexGezIhjkSj2JDK-IEfLMMUKnJwG62HyFuQ8fzq3DlhSd1O4_0LaiGDfh6LX9PhDB0gjjEAgoP3I8qpvG5vFMXPlXrdcFBoe0KBw7IxLlNLglW04ozfyoRQbctbUrNnwGTDj_alLP4jymKfAI5OwqhC6mEvhUX_Zd5Vs8ALR4sq4jv4Ajzc9TAjGhChgXKenbN1GZD8mroPeP1OPTB_qWl1e6Axm9fOGO-XzqSip-XE2e7VYZrlSuw77lFMdOcqt91k0br8HApnHXMzHMC0aXdcNqk8QGh0M0doNaU1b1YQb86tJ3nfBfS2kkPyr9fAmrzC52-g1fFQmM-x2NBuO6vkjRbP23h3aqARCPuEkP4mo1fRnlohrAcxY633bfSwQBC68Tb3LeoAp1Lp5wAM1dQBQqhZG-fOahE2RuqZ003RehPPoqxirsso1umBWRr-P20PVqex7vQDunCGB15Tx1edDraxGInO-cR5kr4ezyN7Tw7K9lAg9gumLW99JC1usmJivPf9yYUaBEi_x3CXhKgJIb2xfXgQ2ejRdWuf4ynJQU2fH1mIwaC3dcH8cn2a3MNQxpXIBbSb0kxp68orgOLayriBNPBfWLy6WuzY2zAmmR4QrnAfqJgDMJ49hcFM8Vb0OiIu6VTkAvyOh0JzQnu631BS0XPwf-obs01s3nRF19MZZNGXKOASQXslPmcOKKqgrWAkEb2f43h5CzLdIQoqrqgsNOj4rnDZMQ9EuXVKcR6mxYsp87cX0S3a6qH94Vd3qX2U0vwcQcODfUsT9hLGAoGAj4Cn-nH9zE6HcCHgU1X5ynseolaeLccoA8JILZ0Fe1lSmQI5fryKjcOK44CcSaMmj5vbWBODhXTfj8W0Qt254esGBD4c9XMC1uWjJT57K2NEsnMLUPaEIF9JR18sR8gh9eIAnDOTvjL1kkBEYLcaFudh4-iaew8cSS5M8YHAduD3OXLKhH1VhIiQ2igfA5ammxbx2aid2s7HE3zm5HNdg63A7Ywy58DpJfiq-HOE6kG2DXgRwTZfaX25202T8wpELN4nBLDbQp2ewm6IoMa1l1KiVmweL93HDxeWZv0L30ij7kgQcEw1yf4IirPiCKmk6qgMCgA85YndBbnhEgJgbI07IOJek-Zej8oGKlbeX00beuHEuasD7GIVASBuW8aWmRfSo26QR-cInuRA_X1ehPOi3QG58imMOV1tdMvqfNbdNG0T05HF3g1cvAxqc49VQwYzYmALgbgFHLyG3T1jKln4K0hS6dCySVSBxq-Ns0catIGvrp52evleJ7a-4OFgI9WxmhGz3mOqOeBGYkDYUSA8xhpdlNQhevcq2EqKcd0GrzGHqQA-u0L7BH3XJMLfwLlnL0tmSSGXWMVySoJgrG_Z8TZq239CSiMMEpJIGq6J0rZ9gwMEWgxobKxJJXBbdDlmD5QyxX85Iw1VWCNMYd0nJvw8griYHNjF8isY_Q0JcGOHGfbVQo9InZRyZW1d4nVUPt4uoqOMnoBNkCLrgE85wgfdanAuIQ7ZHhDvJmi_lQ0QcqlQJ3u711cLqKpW4x1paOYZfvOaESXsbnnonDfjg31pb6OeGHI7405wDM9CMOb7xEcNMRSS3h6fCDx3E-50AGNW-yQnaDi52wLeasGHNZ_ab-3HJ99tgEgLpmAuhAgfQVDish91l5aWGS0bRDkVV0-VAhuYi5dIoB9CQMMzQ4y193pliGxjiBbYgSzVOZaIcG9Umaxd86LOjYXZvX4B2ir6vanHnF3yRvU52b3jV6yG59J92ecs-GDvdaDa-AeC6UCRxIc0YrqhBeShWGeiamZv_ft66OUMwkOYgbpcFhU2fO7nzXKyqN2KrXurAReDHwYihqgYGYOtLxAkyDZBAAa5HZre-SfUepX6Cloh3uVxBIC3bUWbXM8CF_f-1iBsl163brrhBesVV6tDU49SnSvOcT3waBm9mkgo52wh1hzGLpXGKhaa5nkIvaD6hFiobPQXzN-e6osl8n4WhnIRQLO6CF3Phu4xHmFhW7F2VKLIpUzJmbgLj9P5dGLnHCW3rnILKutWCsR72O2UFIabwbOXFw19m9Bw8mdi2HAno2S3uVpAXV3yRIoPCaxXhgypaU0u97ee9Pi5RdIZfwIJSbibgynXftEy-cU2OVAIwBzWCQM0zbqcY7F2HErF7lJk0AAM9DCaYJbpxE2h1P8cW7ouXdgxEeWlc4TedRPSjDlCwbipOK3iBufaas9uP9JZGoG1lChJdG7s9yrU2FasBCK3hTJ3PzZS44R2SHHaxYWxejcRfZ2OHbA8fAdPwXyEVhE292sobRUPyl2moxNyRBQcZOZEPDzAALjhQaS1N2foQLeKB0C8XPbmZfJLb8KJSv3GZpd9gA3FfjSaH8hMOanLDbiu0Swc3ONYLCTyBY8pLKb94sn5zGvZiagdtaM1erLQk8uSPcQjPzPNh7VZCM8rTAUaMmdPOsCboZoIOKuQQARlazC7U8deHmfLSNs37jYeNMSaWwWoWaFddEa_sV5JyQEC-PGQ0KVs_8mge1nbbPPRwmSyGOUy9tIUTcqYQg4Ia43vkYCoaSMmFEDrttH1Yoyeq-GJ1AZGYrXfHnePtaMe5bXTSebSmz966X3cNtA7wwWVyDJU7LmYSSORJvSGzUHgGannT246e13cQ89MMKBWwiaQml8Gl6MTR33S0gsmiwigu7Qa49lc57NwQGF6e0cckFAMMzv12Yac_9vEqMGc8AL_7u1gsbA49zVs02VbQEuu2Sc3sq-fG8HX_Mjb4x8186xKxOZb3KdoylZrl1_6S4jbALvOTvKIeKOZh8PLpbYNfvexweiBlbBgja9Y5logC0xrfgpjjwMtGEiRLkQMpdimL0HLPiWQHv5yqfd1l4qA9wdZr8K12Z7Iy4YU0cwKLLED_DBK39TbmzgAyrpsRdGb8N3eSoknCYW2K2uahXbMQpEPXDwqF48MXNwxgdu0NNoOLJlmW6gVCInvLbqrTWgPS-I0PkFKz8JXPyjII4NjBKrjkPPLWxcX7ieQAThh_E1M7g7dQtTFNwCe1SUXJReM12UAvrLE63HLPgGKJ22rawYfYHrEeePne06We0NRumddwdwyYSw2FyWvEB3zZnIQjAPtXJbPq97Si4mZ3paJvSm1SaW1J36VPM7wAWFSWLbg7fpBFEJ_U7HBEjrAIMWJUaORPQ3UGrK0f2pf84rgq5jXO8PYlMjJJYRvyOrnCtdatvTEDYlsrBIeNZ8AyTP3K_Yyj1QYkFpw2LnKbVi1PtnNBNO4chbma2Uqklwlj84F9hBv4qAuYZoMybAepLFdvdULiaTfrcI8YgF7p6WxKXdoXcwXAjIcHORlgiW1rVfUJ1jeKsncRG4XKICD83ooNNnFByPd9DS_444vKlr16XEFAtbM4jF2DSQgTNWLnxQAYz27GqPQ_Fn07ubm4cfPCDlFl3RBSN8Cr73SzG-9vkP8PFl4YdM888UHXKP3Np5itOIJY49B0zC9RpMqL_FgPt8gKn7IobloqFUzAVaK2CyBN9DOMs6Ai08kSuL_65OGoze1n2tOrL9YG1x9kzTAuuA3vKxbmi338rGwtjTrmv0j_Y2J82A3LEiEGOSZZRLwey6LxS-bxNJrlP6vTfGW0vQqpfh2uFBoc6flMwO0LUwaLF_fW-v_f6_negijXnAiloiYJQ2DGrppKQLsXec6QnAfx4CAvgSb7AJpniUkorKQbXG0IIPZr-nRz1DTX9UCHEqRGagyP0TJpEA9RGyrSBTb4mZV6IU-YXheE5L_AQ0V2eBsm9DaGyqMCYtrQF01FELZVWGmLc2jq3DBT-PiKm6DQKY2hrPqaQ2ZCnNDRGDSY2Vhh5r5IQ0WyXFIVJYs7JyHWAhtkKx1I7sMkMqeFciSWAMW33Wtc5bSj2WuI4fhIkMvTa2o8seEXPCA7v_A1zlPD2PNrQgecaz95Vh7AmdDx04BuNJM6vdErsvv-7J0CG5EIs5Iy2jb7DYvK-lEbEbOJM_ujBbsguORSwb9WsFNYbLXmmQPgqOg-goEzMIZoMf6NG5ZsxcCHYYPgMvV2W31e6Jb79vfYmq7TKgVC_ZjG64fTW7YQ2jbV9xVeMWwQkIDi9pp5eiD4-ey9Y2f5OQLaRelYaEFP4DKsToAXiefUrITkOUZoNnMo1TIUQrJVXsaJYPFRz6eBfSummV1og4fwCA1tRyvexfSimgrAGB8cYPdMIAkXtXVHxRp5y6C46sj7o_XQQgiyLlfXFAimIIst7ynexjN3xqGM3E0fWwvSJ36bgEdP53CIan5ZgKeRGbMqYfx1caIcTSYUtuxOJyoIhDGvEkxoiFWT_dedCaa-WLAm7a4mKjQn5rwa99wjK7U9rG2MW81P9hJ3JZR5JjXJcOAYBsz7B25CrLikgX-A7ZYVzYmNYOoZTIcSHJdAnIJRaZ1fpRDbTV1YWEymq9oWSqeDx2eMenW2tFd9gse5W6m0mBuYLIodstjdpuZvl7RyTK4M0UsU9tqcJp64zcZboAe-AtiPhALl3e011vFaK6Wqhzd9DWd2P1OfK42mP8Z2Azow16Svc9PUAchb1WuDQ6xq1aPnkog_BHOIOz6dvpiAfkRK9wrkUW8wre0qCfPP0K9OA44lzeI5lMzhLPrJ9lvXBr-2aQg3fZV9MrRaDvXLXMbktoh5JAOeCl6RSiyTzu9at9rrvKG0lWkwoa-A6sdXyrgi9Mdg35stm-Y7cm3goLp1Hu503STAw4eJnhR3C-26KMEaMnMEq8Ys2BZe9TjZt3vpdg0q3HPxfr_6P5-CX9fPhfvUPlrF142u1DChxt-74mdk-ep6J72O6VvKDlTCNwFd-XhEENyDgIw0NQv_dNpcIV0tFMp3madAPf47kV6PtQnbDzjxcUKl6edytEbsafK5NqXatQvC75RoQn7AuhdvsYQpyAUm1VipegroPv1Za1IfiSi-oOeZ3LAq3yS0bOhIR8YtgkosScMItC3s6K69zZVhSfWGiRYZ1pZJ8TG1x2h50BFtw8XIefQ6hvGKLVQX5zgDYsLRqZ4tQCkAMaDGixeTnSdpyXrCKOS1KivmS7g0sJTyIyP2jbj36RZyVjg1wT1vHPEYOryep_ygiSSgegd8Ul8GAsa2Kb4e_bmNFFt6RAP8Im5JC2LPKoynZCDQGMFCZ8xpVAfv7wa1itRGrhMNP4evYtsQWS3MVsdPLH9M_emjVn899IKyUleAZoTGt0O0YEh-jRcTxfysTr6C1Zb5fm3x-xfiAt8REIzZoDtnHQifv0EJaJQKFCkJvBe4CHCrYdbp9zY9_E8I0UG6KrZIjrWi14_4n8_jgXPRBL283acO2G_t-zUoZZ-MfsEVmelqGLJY6mn6-tpK_vXxmqF_T9jjvjzEVSYEL6cXcX_4jeeny8Yp-5DhwrbbyB2yzEXmr_FgowMtxp3S_ohuXDNc_zdjYuNVxbiCbYpq-BZTkEVobiiZhuosBRqya_yuK9xVyriBrlf9y2coohdmJRsx3yFDXallrBONjVu4-6JTwKtmtRssZx1yGcx_R_ejZUbxT_McnojV-tniOlt_IBO9EpZ_vziVqTbny6orqU_b6n_Tt4tm_BNSJBlIiQ_qxOvFpWxuhTzEg3owlgpV8BO5NxhnCxJ-IdV8-FAWu8_zxIxFZehtjUA9EOd2sNAuXR_FLaKurzKvkc-aN2h0iery_0VTCyxAlTORUQJzz_JFC7hzQJrxSrElrbjRczrPCvrbCtIp_VE6hqWh-DTwZHjmCeixk0uwFDeV6_MO2dhfuEgqigm3iq_SCr1fwT7MxwyFhLxEp62PtblyxlDaaHyxs3FfpEpo0Ucs7hHmGd-_ZYwNHzKHJwyT7xO3JawaDrjOV2TtyPN7wugpzEvm_9n7UUoovHFgwBdHdjTiWJo1_Lu_koVH_E3-tVH_Vyrrl7GPjzGtuzB8BcEGK3p8VHS8SqraUzjrU5dVmGVbHrwvSMQnwC3VRyOcFT2FD8RFpagyl9hNC-s7R_FCjRBsRdRm1lxZh8ZSrl6oTBxrr7El32_h7YhgMVihpxfiVNwb_1_3KRlzlBwJyoXTDVFmV13Hyx_DtUEpJoys4rXxNzo77lyjQXKQ41huTWQZvsvBk-UUlelshWNpFcesNie491LI_J3DQEZ-YDv8jztT-4i7xBCVwwVxHcD9gCafJkWNaTQhc_Jr4bg-MRrR1UpzxUgV_RtZeurZUBy-6Alqc_s7p4M3U-LO-rlIzVJTUpiwzNiv51VJT2xN6JQhVq8xdXFt3CEt37zkX9FSfNKdxhTHyVBQytxFpxnVn3_jto0_EfLVPlDwcR27DuUlaNqDDYmc-VV_6-ygy-L9eaX49IotqcURkxvc1tN_nrVzVDOUDT1daslOBb7rPJl1H_j1te26xe_V2rZkNbqRySBQxdy_ZWV7PTVjt-tUoS3dwwUWFEp1UR2uWldfqlhr_DmuzoNmpl7yrMGt3Qyy-U_mt_5pyJSXp_Ej7nJrN-F2aDmcT6SWFy5IDPwyW6zyS_GCyduhdlUHH8LQzzKgqExj1e0SUuETlCflFGnTUoqd_zj-CZ4aj8TNmq3c2zYNqFaylf-zEp2qm6JFpDXlSo5OwF-F1okTnSx3xyF0tph_yMo7-zU36ibzUhi-4vTcuYJmFrXyrNi-Nb80rEpwO45Azux-L0ETZoEj1PdfBqbjWwzVTqUdKrMq0BJtv9CrsbVzV3_7NTQTbbl1P9yTLyklYPglNzf7XV75DMkhE2zM9wzNBvSBvS3-iDUvzifYlqbyPyEvtFpdbxdTuftQ9H76aypzIWPlJ8tzajsbmCtonYFEb-U5nO_NAArJs6extvmCiX_FNLzMn-pWZGu_goUciz--iWlAs2YDHNNzmeM314C7LX0x6yy6_w0Nff4JRouH8pNMmoXqIwr-E3P1iGzy5gc6Rop6S_3zp6boEMbXbcZXMXE04XOcnsFMpYGXziTbXW42A4oC7B6S3aSZtRYiXXOz3PAOXIcE2Bmxk51j2qtx_6Uo6EiDvjLhYKVTqumzrfbUsK46UWzCEBvUoidY5b7QH-FNipoHjAWx2F-5G1D-mU7sshaPqDgbL68Hnd4BQXtCfCEqiSouTeK_Zxw-dbyFI7Hz5QeCqRpFoK_t35rxFJdna7vd-p-ajlnDt6HBbHHQaV7rq4CcrFxdosleAGJdQitxDXSVrn4qXl_5OJU3cytrolXXysi_bwMzJZesSKw-zV_M_O8VpvkzFD2fjnB2z-IL4QtbKDlfnezVcee_FLzCrBSE3frGgMvEamFLzpbUmd6BH_cgvMotVVFRvtjNZpJyVfydJhSdprfz7bTrkNuMehPJEUnDO4Dikh5oJRy-dcGhh2lM-7rzktjYu_zgqugPFHp6wLxjpo2jsyN2RAJzB-i6zP3Tv9JqVldSzMvRMVXmzf7Do-VvGHnaU_2z1Kx8gycXdhwV2-C5NfxZyEqvGndZx-vkkdByldqfnvFNh-fsyUlNnQ7hTs_FZqcpy_BayRzNgqMwT_UF7oBqrvhfdz35LXesO__kNquODl7zVjtEkZVmwTZnh-jDqm3b0r3TmYv8noN_FEyzdxOVxZ149QwUrjpYdjVhc9kQJ9JtViwgVR-HLD7xm717ooMbw6TxQwtb7KV05g_i4g90wgnj3vnQp0sbrTGyLziq3hrVJ3v-NF0xtH4WshFuXf2bSlnA3ygiw_ewfzjLojPPRhyPJ_iQwsZVEXtYh0Dbj4YSCLeSG2jWGzFAYkiYav0t4sGsqnLtJgLvC3XeDWO_7uBJt7WVy5HE0_EtRb59qFYuSNqyMR8RI8izg4t5wuaT1Q_llUwSCNZnz_zvU7Jnzyz_NZq3Y0sTZJ_THZdlpE09FaFuJEED_SSxAKmsRN_8KsNrsl3w7StAQ0nkMhzR1wEwpMjMNCunqVXLtvtVUfrPTVPZ6MlhR4k0OeqYGWWkjNwxFLx1MK_PXmO8VKEMSG_wgsw0hGQRQ-EBn5ZuQhpSL7xT2ZnyzVFgqs28O_TF9ejXf1-B11szt_-lrvCgLt_k7MFP9sUP--M6ypoNCW08heSlwx7GOIA7F3qyddc00wFJhw_VUWDXpQ8LnThPORSC1mleVdqLtaZ_3oKVhVAkJGmrXxkFX_X7P__opOjFCj8bRptwRlQFex3s-V_Guxt3hvtHqUpNs3YUoV-ilnaz7Cjv_TFl6jDswVzzOBusbNSfhuwJPPJSqgJBqreLlbwkNtttzRwxr0AVQovT46kTgP_KU9rOncx_NqR3WgS_ltlM-ZCPqTU7MRrN8-XzF-poSd4b-x-P49Zo9VXzl9OzftktJm6TsQwcdoSZuJtNPqxzwNSMwVVJTitYrNFtyDeB-vEFsmtWoNuMa4zZS-_kuQ21dlFvnUJS_eqpwVJpyCApXRco4t-pzVPcswzxdC0Uh-2jh_Q8cfYiKUtKoJgMyzMrwlXz3TwFQ3u0bpKqUtWqiykXEaRTpZzNmpeyE-RpHvjdTwZuR5cZIexmc1rdllPhBjU_XeDNqtUl3u_OQPWfrX1VcFxaQ-UK3FRNJ_uP8nIgnh73eYUupkVFOWz5bjKbxpA8GP7WcJtlIa-MmKtELWupWeOrw1GwTN-U_nT4OkDNikoyvEqMYM0RIDcI_T4dxRjIoXUNoOyKcOYg27V9Uzv7v7T-FhEtf_ksingxbxKNYZfu7hjwUvssHxjDqMM_hjisrjMatlzu2hrvVp_mi
' URL: http://www.plantuml.com/plantuml/uml/xNrhSnmtbkLt_mh6x9VocDG2I22HgUrnjAo7vLtBLejojzqJ4nqbCYNMkbX5LnNrwDwUtxxd0BW0igfOfDoUYPrOzKnOp4ma7XVtSUu3MRzVRwQhpVNb_BFrpxF5rNGrlJmwcq_NwmURpMhswdepV7EsN9pE_ZeSgSykPkV3qTbiTJOVFliij3fwDYoklrbSNMyUd4-lDiFgw6-V7HrziLbUdrqyMhvRJDPdgs5O_7Z_QBRO71_5gv_IrTKI_mohT8MnDij5kFZy_j6hvN8-J1VixEVXG-WA_vujpuSzBT3jSZuVpYVJo-NrOeFHNi-NK_GPhtzArzLBVvVvVpsz71uk5vlGGPpzoHdkhQRtZxvVRIwMRrRJgulPsSDmZq_VpePtLylLvlxH7zDVl8k1rfZQuyLcjld06u44VnpEDaiiCFxR7FtBqM9u9rSJTNp4__yyllzsEBqQXlCqLpIrIhqEZsQBFo-Nb-M1kkVYW-dxyGDxBxw1BNqpR9ulrxFDZ2ID0vhHy6OInZqX_SP4cBoTWIEcyp_DpZSNcPJfvjDXzkPY8mJbowjX3UwOl8kjmrPUf4PnezukP-TiU7rrFjqCa_DXlfcM7P6d5zF5-NpuNyE7LylfwZomr4rDryFcPLZXv7sUteUzpRx2zf-l9w1WuGbS_5Gkfkz_h2z-sktcD-NbsDbg-kODkFMk_UtfueUh_rSb2ozXPwAuJ3w_GOZOHAI7ZR8aZUJoDAmfokGRN3_zuT7zy01_a9Ulv_CW1jVppUngFhpdWWFZF2jtgdPlHbn-VrlqSyClDhEpdr-0LNSaxejXyMQs26BEVqVo4oSRXEgBzSNotQHYeTMmE8TStS3ETnQWgobqpBZVzVNbw0urT7rzFbjVBQkN_bxhxPg-bxWEz7qM_xYLi7dnfQV_0eiFOl5wUZOSVVzgFQpU9fN_xyl5uxV3OZCP-5_iB__PeTbtm-RTSlNprwlbkyt5wOVrPhYCvYxq-dOwJylBfDdpmcIhRL32KJC-6XPGs1yUJJVJITJWfrUh6Tam_diC1eLDnimUJg-cPsXw_-YxhJl7rF2feoqA_hUhrV9iMA-ZYPeCuH-nMBjhJHslumhFfgjNoyKwT4bvu3qeKaZpV7GphLjUdeY563QxBFZu_MOrFQE5keMMQUApnPi7gzNq0tbn4_vA1aqk9sqnQTkTxwFxDaNYAxJNDn0biF-BmC_Lb4zUJJTd5x9BN_7YTXGHHMUxlqYlsb2-d5qEEr9pS2kFZsvwCQ_Zs-c7OVLmUKcuX_McBGxNmsJGfQV1LBG01KiNNysMbqC2UyFbrOWnNl7PomzN6Fyh-RFIms7fuS51zdWqMmrX0-Cevt8fc2eE-BS0eOx-dZlEhzsHzsBlg-dvx7hCtf7bens8jrt5zVLzlOVh3ex-6xBGVqtkYNi8eLs-Ywy7B-J7ok2-pdT_shwB5V-uvzvEkocxVmcflbvXBUcFRJwiPd9mouAelfpDXxX5mlcfyw1-VfU6-BA64l7Mqs5wVkCKjhe-E8qutT-GVtOx_4_YecIaad1N5cjaILAhmz9qlLYCg76ZFQvRti4Wh4Bp6wt10mZws-4bSAyulKjqnkkayEJFUuyUFtdmmxSlyppAcmSNzdnEIJlTO2FglRuAjsjVCtIwqphsFJq_7yvVBYDYdOm1x0tEsTxznYJfevu_MIqlR-liJcXgho3T829ta8n7mzNcGhZfAe79BLx2xODz9BpsPBvyTmixNGpliw69PcCRz9LExW8z3eEnPzEhgs6LeDZVe1NXeVmTJbxqxn_YyVqZAkJb0Xt5nhyJxv_QQElPFK3B9ylLH9hS2wDyFkfy7IY-l-ku6mSwZWtsTHl29857ztVzB3y_q7rfj6-8QHQk_KCKuJimH6cqRuW0SFRt7d3DWOx3ytrz1gRTtsTWt0DzXkTxgJssB3UGVDpe4Dt7BG-E-FmWSpxRRdQNKG-nQp8WDz4lF3n8mT1YNy_YSwttzvrTdGEzvpQ7-XSFxl0mqkeEeqdJGuC-MatV7HwGBUum69lj6sZ8W7Z_C0Km7nYaDDgxzQA7RzXyUNne-wNDlluhXBX_XAh1WJ6gLlj68NwU3pV9wCFqz43_qaGwt_7akKMrCy_hVVxyzlsnIy-dXq5Baj8ur2-Z4LQZg_SLOEVrXwth17EgDpQL5W1MgAws0OFSlyKDUpDRRrOVjkpgpQYv0lPRXlAh7Vozh-qeIR2lmSNipSMSqQ-2x_Or6oF0xRNdPhF5R5F7mogHkI4gA4nKV3fUvU0kHdezdQzBu5FQtyrr6hD6Y56lRmxcVBwN1xPSfZljSy4BQLrOo-fqc4CYzotjYolqinxE6He_zFo7gxrFBuRvpQzMeNZSFYcHWpB7mmXrIxdN0bsYWhj2lU_PMB2bnU6mIM2uhwvdytD9bcMcsbmCtonmiJZBB2uD2uEENOOjpZqPlJKfdaLOuse0SQAZEdqr7oQ_f72nP3bYdFdRp337HyKFE3wwMNNWMNGwda_P-XJaMBpvl7Alqj3FFfmDyzdrvSx0jVDw78JkOTYFwiQpk0iIaRsfwySIWTmPun_fDNgzan1C-OEaYtZn8bs0S7yeVxxOxO-3FIsgQRBpC73lxkteaexlmn-DiRzNLNGG0syxFx6f-Fz37LdO5zrcun9shff7sNWGqbLfaKacgdktzZDkKDpfFSyhzHkbOLAxo2CMtzzyfzKeuZ2Abf_iCHYtkATr7tSCzPoS3w-dqBZnrSd8YbMj5ipRl5fIVBAiG4MAd8roX2UlkBR37MxvoADMTmWmFPckDzyjP-lXMmapd5oUXWHxYjesZGytdwo6Nww7nLcDF-uf7LFieOSOoyv_ea7--zxtLyFYT4Op-Dw4DruikQ7B1PysZ-uVZQ_nxlZ6lU-MCPDu-N8rNQnVBrUNykRM3KQKndVkFOeRipE79rGZqtcSTtM1BgghClJtkFLsoF7l9jpyTdfslPYkWgm9OKogCBZyUZfRxAb8-5F8tGtdqA9GzRby898qDdaE_dY-NBpPRP8xJtCCsNkqBYtqqNy_qlTy6kpXC9zVpwUhHxCeEK-k5sTHlz_qXF3vXaVt7b-VpMVdOC_JNqQzlnXW71QHbBltgXxBpNlI-QYZ_pdRG4oVBSzdhsSKrxmeMVQZvIMe-gVfwYgEDhv6o_6DNTOBJtuxBYh3FM26Ptk-MNDzpUm9zQLvL5hz3Jkk6-LCgtjZZC9Vhuznh--rjRPhTUERJeTRJMVQhh6DQLgd-jZAD9tlNMESrgRpuLwhEjzgQtg5FqnyrVTDuvh6AjDhqxWRx-rxTzyO-wQoE-7nklJ-PYStjDiPzMJliBkhEDbUnWqhEzbFWfqnJlQJO7VJJkwokWCDxpRooPtNSd8dwkW30-sTqQzUuhwDFhaZVvtSbLzFxYe09tSKg9Cxo-SdCVuanf_4-9COVnBZJsByIOm_YV4dCVuanf_4-9COVnBZJsBy_xiOtr4-xofFTnI0EtFDdHl-0s_lRtU7rSMgxHn6V35TdFznEDkA8g8huvN2DkY-IrDeJUUiwhLiGTkethGcBmLZzerEcwOizyo1CLhXqLvftVecNhg-DywWUUgzmtQtocYVcliEJD0fqtMH-qpJj9tNtiOrsTQstXYVveA_qB_kqykjqrQZGP_cvXsvi-jTOel6TnPlTsbRhLUsQsJaplQ-yousvamn2gQA6QJdlbVMk3wkq_hMWzpMfjOToAtIj75fCHCBAL3fkl5z1y8qLeZcb5CDrYb4SXeRrpM9Y7rdT8lP9WNiZMqmEUciPR-TqaqR7plVcAu1COGAZG8hgD8v2AgiCqacjMPVogLB1HPfM-TrawIkSvr2Xr7yU--mwCQRH2N8PuEkVPiwztXLwGwpZVjbZR56DxqL4MwRrgiuKGrzqQfMTq85R6SFjerRhK4zqCGB2J5eRp1BBVI7kkcTYnqxi6YddVL98NKjDrCtIKIiSoIXRULnXsLXYsGLNUjwtMZCDOsbbEwnOMsSA9HQRrrdbV1utv8Ld1VMW6PjmIzTN3GbmYZVsBGVtZMwStcm5jpEoLcvxWq7GvUnEPXVQpoNTMiGpQ514cq87wJ7Oi9nC6nUYyLtQGCi5AvlhHADgq5jxwrMYUSxRY_cBqk1ZWPlQ15FN7gBoIkNnTLOPNqVDmKyseFH8LA9KXnOORXir9nts4AjihPeeQnrOoBhWcQuW90w4IBNUnYEHkIaW_O0FuaUwy2wi1ug4yDv0pA3f74wq6MAgKINfzj1-LZVo4OxXzRWNYt4XEmuvLqMhCuhR6Kd9iPf1OPESjT3LoXDunOLH4_p0sqYl0yfnD1TBuBLzj09VIDSr6cm7Av5eMCgsEL62HT26fHj8BPDCjMDewouk3Rm4qIdwJid-WT2sc0xnHH02q9M-hmJ3RLRBto1--1PRzA-OrdWE6oLw55mHEkoFeAQRHgCrqHnQbiORTMaTprM3K8PBJ8EXG7sZ3gQ_6lHMsU40pjjiICgxb5OjaBN9gfupWIgHojNX9wYWGuJls9QC2TQn1pF8KtUTt5c5ck2-8dAW2u7RtcnSUWMEi0c_O9NkMPlyb0m3mfZnRQmQ2rqi0WnDAPjMh1odAOZ_e1QIMfFQ-TmtQPPMQqrc0xI4VSAgif1GcLl-4Hrjad8cYAjm3QovY3nM4T2IjWeXSrkyqn0KUo6aaN2Xfi6rFV2Pp2ukhKWQ-Qx5dhK9mB325a7cwjqKbwmBY1GbWcGZp0jJTs1wHGiMp5xK2rWZgwH_K0BWBkkq1HqwaMWUaY8wQ0Saqe7EKqGoZWs32h8XjMrmfLKl4O9atOTDRFrYJN0Zs2yfX67160F72ssfV7i2SgbpV84-I00oV86rG604wKNMiE1_JF-SLIQRLQxr5IOACGgKgthcXvcBraVI1Vu5aoRfQlrvAw4UWni3mGW6N_I5kBMwFGkj1IrdgW9aBC1ZsTfKbYIrabuC0ucPhkim7036b9qXgAzXKQ4Ia_2fg12LIjhzk2C5jijBW1CAYotpwm1PQoBImRb057olXVrgDe0ZxAsPa-KLQ4uz3LuCw7j5j81IzgcIu-_7R2U03EeDjkB4GDne7MD5_61pS5EYGC28OCLR9si4Y0FsiIeH5tiWhEQfadCDQODmNT9l03QMWLLQhrexOPgrFYar87xW0fRyMl1OmHJil4QuaUHwViCzC23G53nTU0yQ1pWX-J50cl2PlOs0r9Csq2H9rkFZgaM4W85A00a5VFH4y30tcX1Li0tna8D9M7fkLL5gM0IC2SmEidJQfN7r36ye5TiFQObvWRw6NeOkgCLfDQ3tpN8ahGCk19zT4aMFTOWiXMLE85Q8yBL4c50rXE6wRsXUBG9SXeY60rRBP47y0n0lM0p1Klb57WpmIsOCN2mDK9X41iCu0fT812g5pkeg26Qx1A05HgkNVO7oWPUX6k53g0tdOHM48uZE8Cy2ZhhW9F93yeACiTp0B9ayY7NhS8MvfLmeXbKGZQnWJRv5s1GHGIHqH9vbYfFN3Iy3INbEr6Uoj26WzsIkC5GTKG06NrWbP0-dtW7kzj1jBCKm8O0DqhlU0ZC2PGPfmgGXUq5bC-JSKJ3MPYnUuRIsGgMCaGh1kOsxJyu6MJKIM0n6WZbZSmD7Dys725DXW0NLCqE3I0bZ4IJgKwKI9sPWIHCBVfCGWXGqmTlAOa5r27rl4aB1roWeah-30G6hD-rQSDRS5r712uw4V97CT4PqK8vUD4yjbNGwPrFHWDYt5cJL1GMGSESE0621atIsyJYi6c6Z9OC8MGDaWbEYy89E43pduqBL1rKJkiQiLI4HqwGHWUgGxQoHqO_LJMo84Yf0TnGWeYmG6YSDgbqB1_DORJZ5I07ZBb99X5m6GzXmiKpeLx4jcMRXyL1rgniMuCbjW07BaqCcXQzQzUNHH5I9_xacc2klHYvdWm1uo90WxO7bZ_9BUmGtHWeyjWtHu4EiWbx4L9Y6tBG2gYkuyB4K7KmL7qX4Rg2TH9V7FhOqEjAdG7RGluR9nI4KeGrWBNf4X8d984ePvSAyuHuo4BWyC3_0wzcn0JzHSKgAiNH66Nq2t07bmB3PVyE7W1qfnFaW6b1yugsepM6Y5lnUO2m0ASuPZRYhYVl6q7Js22em6JoqSxG0LCI57Rmi02H6ucb0Np3aHMb0Gjju61RbJrig7KO1V7GZCSwCG4dkm9RIcebuzU2n81esLzt0QVaI20WJ0VrsCUvG4bQcCrUDetc7K9Gt3LBAzzvGQQC3JLjzhf3Q0Y-cnKBX7K1R-Wachxbj3eZAWKIP-bkvfLZZmmSL_6w0LDTDadHkQFq6jacJ1OAr3D68BeSVWeWlqGbGPOcncjeFUcBWVJfcK6_zBgpMQUZ2OTAH1Gk2cGd4yhJwGIaIuI29zVXVpRXMB0IF23mf30KGHISpAHwiJiG3XhVz7BhoHmffWMFXTQi614WUUncB_WHlDV0tdNYeXlkPWlswl8UDcpGIbIhfzyAppH5jNJ3e4rIlPXAG7HYOtI4vqhse8Tz8SPB-WEQ50gf4qucZ8CnDkAECzO6grE5TtLmBb9K1beBkgcJh0Pc0R9tAHP4KmF7nigo6-XU6cUHQSW0r3XmMVOq88A0CyaHXFNorFe9jK5hCfBHMP-TlRubWqa4YAm7mHLlcV82evBX3ncNiKC9YlKk19zoC1QECz5_MyKnFKrePX-eCnXlqG1jC12sJT2C4WTxg7EGr39G072GkAbZG0wgCLaqyYrdcrm48XYZhQWVQ3u8D6oUx2Yb5dvIKiCmW8vM8cq1b1gHd30BL29S1gypyiPsm8csEe4bQcIulad5Ux8n-5O95kO6OTMDn0MmuL3huXv02nC1j5dZGvxx79l1Sc7M0A2IRGQI9QGGwRO1jva-sS6E3XamVzfkk8dG4zde0zN28MWPPKYYpvWOi5LQjMUoW47JnEN0CGoe2eI4QmUPoeYpeseWjXRt16eDGb7S9AmH0jgc0AkX8k7Aadc09eTo49m5tvsAmekM2hB984QN8yEUOQeSyiAqmBlEv0WuRQ4H-EeO8oNqI7mU92WWUy7ID1qbD0aj1fXk4vsWd9lWOITdtzDAzJvv69WcW7gJXG1_GNiJCWcRWcyxqSUCRZKcWnWFJmCWhvMHeUeLVI66uxC8GaeOhakx07yG-zk8TnbSURhmEL2DlxNsnaWS6uI71X460Hj2xSN4Gr1LXhhVkAoCeAsf5lliRZb66apslnXIramkc391RBgLD-1COJbQ9z-WurZ0QYhxreGaAeiMH1e8ln661OEXCubqWDJWRSX3Sg1QRegouX33nWCmIqw5p6Y8dSHoWLAURcbEN41TE0PQXL9m_T27y7VFW2qGJPEKjYOarZu7FHNJPlbjWa_uG4fBk9gHHnK7Op2RRYYzytH9cAzTXW0jh4DFZrocOg4J9Dq3IzRGOH7cXeA0zd6Dx1ct163TvSWXUWT2JT1NCxA7QGkh0tlqO4a91q6LTDHpoG30CFKqHPMNq1C72bWb-HeZ6W44nw9iucMeSiRmjR0UW35s6tARS11TE6zpUeuXSIYRn9WObEYkY0cC0uIXInbIA6geLugzc1f0j8wkc8JpG1N0CCbICHhX2Jvo602sZ66U51IZkmgND3bMe81BY8jwZFQvxoKnYKM1oVgcoMO6cWcgBEaAXxQ0RmdMcfWwW8OGfcFo1XCJfZCjKmcwfA5XMj23v9KKzMsRmugObzAChuf6Pl0iMtTCb87wDkqjN1pkUuOiX07eJE0vjaO1hoKCspBwmXnA8p2oeq8NAAU2XmITtHRJJy6pcQ0mQHG8mNhGtfw1U9kJZXYgoKuH9WhUIcnaAGjGs5wK3BG50mfjdyEXS8ia_CEmTaDqbqDD0BjQjuA7m0HCXUXCKMWSc3s9s33t0Dx8RY83MtG7HJomjt3HqcQ31O7jRDuEu1N3gGfoXxu0I4WsggF7h2Ms3Txk6IDCyKemYQ9YRYL2WYL1r3fRz7Z7z9bOA9fQpBFlSs39ODKsHUEuMzY-hDgmMorZ1HBJXRF5Z8zaZuaWWPqasap8v8qGf0-FcqPGc-yOY5Az9370_LJHugB34hQCN4lOYLt1Q8iWGgL2pA2_TVOQQJpfWcubm_EPccPyfkRuI8V_Zz-EFQalTBmkJz9L_T-RRvriD_YuGTJnfxbzcjj_wjpgPgFNJlOy2Q_TK73IR1USCC8DeDzrELgcEzimkPhiFX1j20IyZaFSez7fJNOKuVCnc9zTUqC5rHCIvHS00Hdyb98c-DFGRla5w5p00PXLBo_G7mPO5I0BZwk38jRYxS5pXCEWOc0YZj3IWL0vZeB_0R1bqyhyA1rKdL-WBzepEflm2MoGOHpQIJgbPMOXnZAIkOKjXdd96Kayjqm7vvYxOsX7HUGlkNeuhAh44d79379AVcFEtYgNwY-YARGXLINehGNeWRCf-jMovCMPL7SILW53mke5BzK239Z3W2OpRx4DAQCGFK0WC6o5s5QhcSgtEMmAAmGW2M-pcX1qFvrG2PL2bxikmHky3ezGC5oaOiDg19_YlInKSQnDakN3d2Y6DAMzfOkfZL5IweOzIM7ea8w1-JLEcaV4nB2uJz4HXSPmULKEhdWIYmIn-HNWQEmCF1sJetlqALpoOx7Xh2-eDWqk3R0zw6HIpiY6xB7F0BlL32zrPOYUoMf56vlz81rgGZ8g8TLTazpuI6f6E1doaeGcE1mMN_8UW9GzsSDN4_CEo3G0z9mGwB2ELgMG1p0potbK4IBG0aYvan2QOqcJrzbTm_1C6oPl8EqOQ6Cb0Q9P5m04PKfOFRWsVPid1PGUVCOsnKwOe6a8fHDSqynrzyPLz0Lx4Slt9RS8rD6slIjnQar1AjiEK07HTutGqu7WJ3-bK3PJMmmWcwviYQ5EipvxmfvukFCfQzuGC87tch8G5aA5H5UAlB1e3wAHijDWv93_DraoUYRwe2yaca80rj2v5cZPqR6sgUGWkbTqjIp3pTdBQI3_uls29PZIYo4kbO97S6exL-hhMgQEGOxYba8WNCeNft6P1D0b14nFrEUALQOgw1ZNAmUxjdJr9DGFBG3GdN8Gy5Pw3ccppc5Y6VEsofKkwGiB1uGq3s5dcPEZB-1YgeBglyS6eqb2mvYV2qnJoJcc1Bf82PQ17c9qIIfUuAxhaAOlYehucCd49DPu0-lgKjm53Y5ulsnVmAuChHBVvj9RRA3fSsJLGhKqRSgzn697M3qgb-IoGcxWYJUI4wVkXQvfitB3Hh0-Kakc20OB7fU1POlviH3_S269x2hJ2hvJgicP3fPCMBZ6eY5PZE1IBKdo2XNBFzgynInLX7kNL0VhrKm3Xw2OWPwENb1YINomThXdOWMmRaPnMrM94_r3y46nyCmEMvCAaXZduGxt9ey1-L5qFYLb0yU12IOj2I5FHKtLK_ZGXCHQcsjuGXMEbrBJDbIrkiuLhU0P2eMwJvuDC468LgKCA1KLSKibJKnmT2PNFZ7Ao_2yoIvoH-DH5W79KYmh5Fk5LNOiLP3yBjKSFCQiS2t3aBqJ4C6osW1Sili3HwwJP61Amcd64xCV7kf-KnwVQuQw05TLWk6O9uFgaimj53Z3QKbOMQlhjFEkAHOP3-5RYz5eWoocO6T8Vb5QRIg9IpvqupXeBXXZ647PN73C8BrLiGWlsHdBeeTStG4knyobGepJ0SXfiv5XTWnGe96CHy-Wjiys74vsJybhsm92c2VtmgzmuQ7LiaI0HW11rQwrFbJ2In6XOKA69MzEyfwSlIjopTGdGvUvFBHZm1SYaS91S639baMTOGyO4F5Im-0OEs4mnaZsaIMCoXNv2Rh8sn8OzU0hm8nShSma3XZ9sGexGezIhjkSj2JDK-IEfLMMUKnJwG62HyFuQ8fzq3DlhSd1O4_0LaiGDfh6LX9PhDB0gjjEAgoP3I8qpvG5vFMXPlXrdcFBoe0KBw7IxLlNLglW04ozfyoRQbctbUrNnwGTDj_alLP4jymKfAI5OwqhC6mEvhUX_Zd5Vs8ALR4sq4jv4Ajzc9TAjGhChgXKenbN1GZD8mroPeP1OPTB_qWl1e6Axm9fOGO-XzqSip-XE2e7VYZrlSuw77lFMdOcqt91k0br8HApnHXMzHMC0aXdcNqk8QGh0M0doNaU1b1YQb86tJ3nfBfS2kkPyr9fAmrzC52-g1fFQmM-x2NBuO6vkjRbP23h3aqARCPuEkP4mo1fRnlohrAcxY633bfSwQBC68Tb3LeoAp1Lp5wAM1dQBQqhZG-fOahE2RuqZ003RehPPoqxirsso1umBWRr-P20PVqex7vQDunCGB15Tx1edDraxGInO-cR5kr4ezyN7Tw7K9lAg9gumLW99JC1usmJivPf9yYUaBEi_x3CXhKgJIb2xfXgQ2ejRdWuf4ynJQU2fH1mIwaC3dcH8cn2a3MNQxpXIBbSb0kxp68orgOLayriBNPBfWLy6WuzY2zAmmR4QrnAfqJgDMJ49hcFM8Vb0OiIu6VTkAvyOh0JzQnu631BS0XPwf-obs01s3nRF19MZZNGXKOASQXslPmcOKKqgrWAkEb2f43h5CzLdIQoqrqgsNOj4rnDZMQ9EuXVKcR6mxYsp87cX0S3a6qH94Vd3qX2U0vwcQcODfUsT9hLGAoGAj4Cn-nH9zE6HcCHgU1X5ynseolaeLccoA8JILZ0Fe1lSmQI5fryKjcOK44CcSaMmj5vbWBODhXTfj8W0Qt254esGBD4c9XMC1uWjJT57K2NEsnMLUPaEIF9JR18sR8gh9eIAnDOTvjL1kkBEYLcaFudh4-iaew8cSS5M8YHAduD3OXLKhH1VhIiQ2igfA5ammxbx2aid2s7HE3zm5HNdg63A7Ywy58DpJfiq-HOE6kG2DXgRwTZfaX25202T8wpELN4nBLDbQp2ewm6IoMa1l1KiVmweL93HDxeWZv0L30ij7kgQcEw1yf4IirPiCKmk6qgMCgA85YndBbnhEgJgbI07IOJek-Zej8oGKlbeX00beuHEuasD7GIVASBuW8aWmRfSo26QR-cInuRA_X1ehPOi3QG58imMOV1tdMvqfNbdNG0T05HF3g1cvAxqc49VQwYzYmALgbgFHLyG3T1jKln4K0hS6dCySVSBxq-Ns0catIGvrp52evleJ7a-4OFgI9WxmhGz3mOqOeBGYkDYUSA8xhpdlNQhevcq2EqKcd0GrzGHqQA-u0L7BH3XJMLfwLlnL0tmSSGXWMVySoJgrG_Z8TZq239CSiMMEpJIGq6J0rZ9gwMEWgxobKxJJXBbdDlmD5QyxX85Iw1VWCNMYd0nJvw8griYHNjF8isY_Q0JcGOHGfbVQo9InZRyZW1d4nVUPt4uoqOMnoBNkCLrgE85wgfdanAuIQ7ZHhDvJmi_lQ0QcqlQJ3u711cLqKpW4x1paOYZfvOaESXsbnnonDfjg31pb6OeGHI7405wDM9CMOb7xEcNMRSS3h6fCDx3E-50AGNW-yQnaDi52wLeasGHNZ_ab-3HJ99tgEgLpmAuhAgfQVDish91l5aWGS0bRDkVV0-VAhuYi5dIoB9CQMMzQ4y193pliGxjiBbYgSzVOZaIcG9Umaxd86LOjYXZvX4B2ir6vanHnF3yRvU52b3jV6yG59J92ecs-GDvdaDa-AeC6UCRxIc0YrqhBeShWGeiamZv_ft66OUMwkOYgbpcFhU2fO7nzXKyqN2KrXurAReDHwYihqgYGYOtLxAkyDZBAAa5HZre-SfUepX6Cloh3uVxBIC3bUWbXM8CF_f-1iBsl163brrhBesVV6tDU49SnSvOcT3waBm9mkgo52wh1hzGLpXGKhaa5nkIvaD6hFiobPQXzN-e6osl8n4WhnIRQLO6CF3Phu4xHmFhW7F2VKLIpUzJmbgLj9P5dGLnHCW3rnILKutWCsR72O2UFIabwbOXFw19m9Bw8mdi2HAno2S3uVpAXV3yRIoPCaxXhgypaU0u97ee9Pi5RdIZfwIJSbibgynXftEy-cU2OVAIwBzWCQM0zbqcY7F2HErF7lJk0AAM9DCaYJbpxE2h1P8cW7ouXdgxEeWlc4TedRPSjDlCwbipOK3iBufaas9uP9JZGoG1lChJdG7s9yrU2FasBCK3hTJ3PzZS44R2SHHaxYWxejcRfZ2OHbA8fAdPwXyEVhE292sobRUPyl2moxNyRBQcZOZEPDzAALjhQaS1N2foQLeKB0C8XPbmZfJLb8KJSv3GZpd9gA3FfjSaH8hMOanLDbiu0Swc3ONYLCTyBY8pLKb94sn5zGvZiagdtaM1erLQk8uSPcQjPzPNh7VZCM8rTAUaMmdPOsCboZoIOKuQQARlazC7U8deHmfLSNs37jYeNMSaWwWoWaFddEa_sV5JyQEC-PGQ0KVs_8mge1nbbPPRwmSyGOUy9tIUTcqYQg4Ia43vkYCoaSMmFEDrttH1Yoyeq-GJ1AZGYrXfHnePtaMe5bXTSebSmz966X3cNtA7wwWVyDJU7LmYSSORJvSGzUHgGannT246e13cQ89MMKBWwiaQml8Gl6MTR33S0gsmiwigu7Qa49lc57NwQGF6e0cckFAMMzv12Yac_9vEqMGc8AL_7u1gsbA49zVs02VbQEuu2Sc3sq-fG8HX_Mjb4x8186xKxOZb3KdoylZrl1_6S4jbALvOTvKIeKOZh8PLpbYNfvexweiBlbBgja9Y5logC0xrfgpjjwMtGEiRLkQMpdimL0HLPiWQHv5yqfd1l4qA9wdZr8K12Z7Iy4YU0cwKLLED_DBK39TbmzgAyrpsRdGb8N3eSoknCYW2K2uahXbMQpEPXDwqF48MXNwxgdu0NNoOLJlmW6gVCInvLbqrTWgPS-I0PkFKz8JXPyjII4NjBKrjkPPLWxcX7ieQAThh_E1M7g7dQtTFNwCe1SUXJReM12UAvrLE63HLPgGKJ22rawYfYHrEeePne06We0NRumddwdwyYSw2FyWvEB3zZnIQjAPtXJbPq97Si4mZ3paJvSm1SaW1J36VPM7wAWFSWLbg7fpBFEJ_U7HBEjrAIMWJUaORPQ3UGrK0f2pf84rgq5jXO8PYlMjJJYRvyOrnCtdatvTEDYlsrBIeNZ8AyTP3K_Yyj1QYkFpw2LnKbVi1PtnNBNO4chbma2Uqklwlj84F9hBv4qAuYZoMybAepLFdvdULiaTfrcI8YgF7p6WxKXdoXcwXAjIcHORlgiW1rVfUJ1jeKsncRG4XKICD83ooNNnFByPd9DS_444vKlr16XEFAtbM4jF2DSQgTNWLnxQAYz27GqPQ_Fn07ubm4cfPCDlFl3RBSN8Cr73SzG-9vkP8PFl4YdM888UHXKP3Np5itOIJY49B0zC9RpMqL_FgPt8gKn7IobloqFUzAVaK2CyBN9DOMs6Ai08kSuL_65OGoze1n2tOrL9YG1x9kzTAuuA3vKxbmi338rGwtjTrmv0j_Y2J82A3LEiEGOSZZRLwey6LxS-bxNJrlP6vTfGW0vQqpfh2uFBoc6flMwO0LUwaLF_fW-v_f6_negijXnAiloiYJQ2DGrppKQLsXec6QnAfx4CAvgSb7AJpniUkorKQbXG0IIPZr-nRz1DTX9UCHEqRGagyP0TJpEA9RGyrSBTb4mZV6IU-YXheE5L_AQ0V2eBsm9DaGyqMCYtrQF01FELZVWGmLc2jq3DBT-PiKm6DQKY2hrPqaQ2ZCnNDRGDSY2Vhh5r5IQ0WyXFIVJYs7JyHWAhtkKx1I7sMkMqeFciSWAMW33Wtc5bSj2WuI4fhIkMvTa2o8seEXPCA7v_A1zlPD2PNrQgecaz95Vh7AmdDx04BuNJM6vdErsvv-7J0CG5EIs5Iy2jb7DYvK-lEbEbOJM_ujBbsguORSwb9WsFNYbLXmmQPgqOg-goEzMIZoMf6NG5ZsxcCHYYPgMvV2W31e6Jb79vfYmq7TKgVC_ZjG64fTW7YQ2jbV9xVeMWwQkIDi9pp5eiD4-ey9Y2f5OQLaRelYaEFP4DKsToAXiefUrITkOUZoNnMo1TIUQrJVXsaJYPFRz6eBfSummV1og4fwCA1tRyvexfSimgrAGB8cYPdMIAkXtXVHxRp5y6C46sj7o_XQQgiyLlfXFAimIIst7ynexjN3xqGM3E0fWwvSJ36bgEdP53CIan5ZgKeRGbMqYfx1caIcTSYUtuxOJyoIhDGvEkxoiFWT_dedCaa-WLAm7a4mKjQn5rwa99wjK7U9rG2MW81P9hJ3JZR5JjXJcOAYBsz7B25CrLikgX-A7ZYVzYmNYOoZTIcSHJdAnIJRaZ1fpRDbTV1YWEymq9oWSqeDx2eMenW2tFd9gse5W6m0mBuYLIodstjdpuZvl7RyTK4M0UsU9tqcJp64zcZboAe-AtiPhALl3e011vFaK6Wqhzd9DWd2P1OfK42mP8Z2Azow16Svc9PUAchb1WuDQ6xq1aPnkog_BHOIOz6dvpiAfkRK9wrkUW8wre0qCfPP0K9OA44lzeI5lMzhLPrJ9lvXBr-2aQg3fZV9MrRaDvXLXMbktoh5JAOeCl6RSiyTzu9at9rrvKG0lWkwoa-A6sdXyrgi9Mdg35stm-Y7cm3goLp1Hu503STAw4eJnhR3C-26KMEaMnMEq8Ys2BZe9TjZt3vpdg0q3HPxfr_6P5-CX9fPhfvUPlrF142u1DChxt-74mdk-ep6J72O6VvKDlTCNwFd-XhEENyDgIw0NQv_dNpcIV0tFMp3madAPf47kV6PtQnbDzjxcUKl6edytEbsafK5NqXatQvC75RoQn7AuhdvsYQpyAUm1VipegroPv1Za1IfiSi-oOeZ3LAq3yS0bOhIR8YtgkosScMItC3s6K69zZVhSfWGiRYZ1pZJ8TG1x2h50BFtw8XIefQ6hvGKLVQX5zgDYsLRqZ4tQCkAMaDGixeTnSdpyXrCKOS1KivmS7g0sJTyIyP2jbj36RZyVjg1wT1vHPEYOryep_ygiSSgegd8Ul8GAsa2Kb4e_bmNFFt6RAP8Im5JC2LPKoynZCDQGMFCZ8xpVAfv7wa1itRGrhMNP4evYtsQWS3MVsdPLH9M_emjVn899IKyUleAZoTGt0O0YEh-jRcTxfysTr6C1Zb5fm3x-xfiAt8REIzZoDtnHQifv0EJaJQKFCkJvBe4CHCrYdbp9zY9_E8I0UG6KrZIjrWi14_4n8_jgXPRBL283acO2G_t-zUoZZ-MfsEVmelqGLJY6mn6-tpK_vXxmqF_T9jjvjzEVSYEL6cXcX_4jeeny8Yp-5DhwrbbyB2yzEXmr_FgowMtxp3S_ohuXDNc_zdjYuNVxbiCbYpq-BZTkEVobiiZhuosBRqya_yuK9xVyriBrlf9y2coohdmJRsx3yFDXallrBONjVu4-6JTwKtmtRssZx1yGcx_R_ejZUbxT_McnojV-tniOlt_IBO9EpZ_vziVqTbny6orqU_b6n_Tt4tm_BNSJBlIiQ_qxOvFpWxuhTzEg3owlgpV8BO5NxhnCxJ-IdV8-FAWu8_zxIxFZehtjUA9EOd2sNAuXR_FLaKurzKvkc-aN2h0iery_0VTCyxAlTORUQJzz_JFC7hzQJrxSrElrbjRczrPCvrbCtIp_VE6hqWh-DTwZHjmCeixk0uwFDeV6_MO2dhfuEgqigm3iq_SCr1fwT7MxwyFhLxEp62PtblyxlDaaHyxs3FfpEpo0Ucs7hHmGd-_ZYwNHzKHJwyT7xO3JawaDrjOV2TtyPN7wugpzEvm_9n7UUoovHFgwBdHdjTiWJo1_Lu_koVH_E3-tVH_Vyrrl7GPjzGtuzB8BcEGK3p8VHS8SqraUzjrU5dVmGVbHrwvSMQnwC3VRyOcFT2FD8RFpagyl9hNC-s7R_FCjRBsRdRm1lxZh8ZSrl6oTBxrr7El32_h7YhgMVihpxfiVNwb_1_3KRlzlBwJyoXTDVFmV13Hyx_DtUEpJoys4rXxNzo77lyjQXKQ41huTWQZvsvBk-UUlelshWNpFcesNie491LI_J3DQEZ-YDv8jztT-4i7xBCVwwVxHcD9gCafJkWNaTQhc_Jr4bg-MRrR1UpzxUgV_RtZeurZUBy-6Alqc_s7p4M3U-LO-rlIzVJTUpiwzNiv51VJT2xN6JQhVq8xdXFt3CEt37zkX9FSfNKdxhTHyVBQytxFpxnVn3_jto0_EfLVPlDwcR27DuUlaNqDDYmc-VV_6-ygy-L9eaX49IotqcURkxvc1tN_nrVzVDOUDT1daslOBb7rPJl1H_j1te26xe_V2rZkNbqRySBQxdy_ZWV7PTVjt-tUoS3dwwUWFEp1UR2uWldfqlhr_DmuzoNmpl7yrMGt3Qyy-U_mt_5pyJSXp_Ej7nJrN-F2aDmcT6SWFy5IDPwyW6zyS_GCyduhdlUHH8LQzzKgqExj1e0SUuETlCflFGnTUoqd_zj-CZ4aj8TNmq3c2zYNqFaylf-zEp2qm6JFpDXlSo5OwF-F1okTnSx3xyF0tph_yMo7-zU36ibzUhi-4vTcuYJmFrXyrNi-Nb80rEpwO45Azux-L0ETZoEj1PdfBqbjWwzVTqUdKrMq0BJtv9CrsbVzV3_7NTQTbbl1P9yTLyklYPglNzf7XV75DMkhE2zM9wzNBvSBvS3-iDUvzifYlqbyPyEvtFpdbxdTuftQ9H76aypzIWPlJ8tzajsbmCtonYFEb-U5nO_NAArJs6extvmCiX_FNLzMn-pWZGu_goUciz--iWlAs2YDHNNzmeM314C7LX0x6yy6_w0Nff4JRouH8pNMmoXqIwr-E3P1iGzy5gc6Rop6S_3zp6boEMbXbcZXMXE04XOcnsFMpYGXziTbXW42A4oC7B6S3aSZtRYiXXOz3PAOXIcE2Bmxk51j2qtx_6Uo6EiDvjLhYKVTqumzrfbUsK46UWzCEBvUoidY5b7QH-FNipoHjAWx2F-5G1D-mU7sshaPqDgbL68Hnd4BQXtCfCEqiSouTeK_Zxw-dbyFI7Hz5QeCqRpFoK_t35rxFJdna7vd-p-ajlnDt6HBbHHQaV7rq4CcrFxdosleAGJdQitxDXSVrn4qXl_5OJU3cytrolXXysi_bwMzJZesSKw-zV_M_O8VpvkzFD2fjnB2z-IL4QtbKDlfnezVcee_FLzCrBSE3frGgMvEamFLzpbUmd6BH_cgvMotVVFRvtjNZpJyVfydJhSdprfz7bTrkNuMehPJEUnDO4Dikh5oJRy-dcGhh2lM-7rzktjYu_zgqugPFHp6wLxjpo2jsyN2RAJzB-i6zP3Tv9JqVldSzMvRMVXmzf7Do-VvGHnaU_2z1Kx8gycXdhwV2-C5NfxZyEqvGndZx-vkkdByldqfnvFNh-fsyUlNnQ7hTs_FZqcpy_BayRzNgqMwT_UF7oBqrvhfdz35LXesO__kNquODl7zVjtEkZVmwTZnh-jDqm3b0r3TmYv8noN_FEyzdxOVxZ149QwUrjpYdjVhc9kQJ9JtViwgVR-HLD7xm717ooMbw6TxQwtb7KV05g_i4g90wgnj3vnQp0sbrTGyLziq3hrVJ3v-NF0xtH4WshFuXf2bSlnA3ygiw_ewfzjLojPPRhyPJ_iQwsZVEXtYh0Dbj4YSCLeSG2jWGzFAYkiYav0t4sGsqnLtJgLvC3XeDWO_7uBJt7WVy5HE0_EtRb59qFYuSNqyMR8RI8izg4t5wuaT1Q_llUwSCNZnz_zvU7Jnzyz_NZq3Y0sTZJ_THZdlpE09FaFuJEED_SSxAKmsRN_8KsNrsl3w7StAQ0nkMhzR1wEwpMjMNCunqVXLtvtVUfrPTVPZ6MlhR4k0OeqYGWWkjNwxFLx1MK_PXmO8VKEMSG_wgsw0hGQRQ-EBn5ZuQhpSL7xT2ZnyzVFgqs28O_TF9ejXf1-B11szt_-lrvCgLt_k7MFP9sUP--M6ypoNCW08heSlwx7GOIA7F3qyddc00wFJhw_VUWDXpQ8LnThPORSC1mleVdqLtaZ_3oKVhVAkJGmrXxkFX_X7P__opOjFCj8bRptwRlQFex3s-V_Guxt3hvtHqUpNs3YUoV-ilnaz7Cjv_TFl6jDswVzzOBusbNSfhuwJPPJSqgJBqreLlbwkNtttzRwxr0AVQovT46kTgP_KU9rOncx_NqR3WgS_ltlM-ZCPqTU7MRrN8-XzF-poSd4b-x-P49Zo9VXzl9OzftktJm6TsQwcdoSZuJtNPqxzwNSMwVVJTitYrNFtyDeB-vEFsmtWoNuMa4zZS-_kuQ21dlFvnUJS_eqpwVJpyCApXRco4t-pzVPcswzxdC0Uh-2jh_Q8cfYiKUtKoJgMyzMrwlXz3TwFQ3u0bpKqUtWqiykXEaRTpZzNmpeyE-RpHvjdTwZuR5cZIexmc1rdllPhBjU_XeDNqtUl3u_OQPWfrX1VcFxaQ-UK3FRNJ_uP8nIgnh73eYUupkVFOWz5bjKbxpA8GP7WcJtlIa-MmKtELWupWeOrw1GwTN-U_nT4OkDNikoyvEqMYM0RIDcI_T4dxRjIoXUNoOyKcOYg27V9Uzv7v7T-FhEtf_ksingxbxKNYZfu7hjwUvssHxjDqMM_hjisrjMatlzu2hrvVp_mi
' Generated on: 2026-09-23T13:10:35.064804350

@startuml
skinparam classAttributeIconSize 0
hide circle

class MenuInputAdapter {
  +touchDown(screenX: int, screenY: int, pointer: int, button: int): boolean
  +keyDown(keycode: int): boolean
  +scrolled(amountX: float, amountY: float): boolean
}

class GameController {
  -camera: OrthographicCamera
  -viewport: Viewport
  -mouse: Entity
  -touchVector: Vector3 = new Vector3(0, 0, 0)
  -moveSpeed: float = 400f
  -minZoom: float = 0.5f
  -maxZoom: float = 4.0f
  -targetPosition: Vector2 = new Vector2()
  --
  +GameController(virtualWidth: float, virtualHeight: float)
  +resize(width: int, height: int): void
  +update(delta: float): void
  +handleKeyboardInput(delta: float): void
  +setTarget(x: float, y: float): void
  +setBounds(minX: float, minY: float, maxX: float, maxY: float): void
  +touchDown(screenX: int, screenY: int, pointer: int, button: int): boolean
  +touchDragged(screenX: int, screenY: int, pointer: int): boolean
  +touchUp(screenX: int, screenY: int, pointer: int, button: int): boolean
  +keyDown(keycode: int): boolean
  +scrolled(amountX: float, amountY: float): boolean
  +getCamera(): OrthographicCamera
  +getViewport(): Viewport
}

class GameScreen {
  -gameHUD: GameHUD = null
  -multiplexer: InputMultiplexer = null
  -gameController: GameController = null
  +tickRate: float = 0.5f
  +engine: Engine
  --
  +GameScreen()
  +show(): void
  +render(delta: float): void
  +resize(width: int, height: int): void
  +pause(): void
  +resume(): void
  +hide(): void
  +dispose(): void
}

class MenuScreen {
  -menuHUD: MenuHUD
  -multiplexer: InputMultiplexer
  --
  +MenuScreen()
  +show(): void
  +render(delta: float): void
  +resize(width: int, height: int): void
  +pause(): void
  +resume(): void
  +hide(): void
  +dispose(): void
}

interface Observer {
  ~onEvent(event: Event): void
}

class NetworkGrowthSystem {
  +interval: float
  --
  +NetworkGrowthSystem(interval: float)
  -updateDensityData(targetSprite: Sprite, nutrientCapacity: NutrientCapacity, newDensity: int): void
  #processEntity(entity: Entity): void
}

class Nutrients {
  +carbons: int = 0
  +minerals: int = 0
  --
  +Nutrients()
  +reset(): void
}

class ExtractionSystem {
  +interval: float
  -processingArray: IntArray = new IntArray(6)
  --
  +ExtractionSystem(interval: float)
  #processEntity(extractor: Entity): void
}

class MultiRenderSystem {
  -batch: SpriteBatch
  -camera: OrthographicCamera
  --
  +MultiRenderSystem()
  +update(deltaTime: float): void
  #processEntity(entity: Entity, deltaTime: float): void
}

class LayerComparator {
  +compare(e1: Entity, e2: Entity): int
}

class Biome {
  +temp: int = 0
  +biomeType: BiomeType = null
  --
  +Biome()
  +reset(): void
}

class Direction {
  +directionVector: int = { 0, 0 }
  --
  +Direction()
  +reset(): void
}

class Extraction {
  +radius: int = 0
  +carbonRate: int = 5
  +mineralRate: int = 1
  --
  +Extraction()
  +reset(): void
}

class RenderSystem {
  -batch: SpriteBatch
  -camera: OrthographicCamera
  --
  +RenderSystem()
  +update(deltaTime: float): void
  #processEntity(entity: Entity, deltaTime: float): void
}

class LayerComparator {
  +compare(e1: Entity, e2: Entity): int
}

class VectorArrow {
  +startX: float = 0f
  +startY: float = 0f
  +endX: float = 0f
  +endY: float = 0f
  +arrowTexture: Texture = null
  --
  +VectorArrow()
  +reset(): void
}

class MultiTileSprite {
  +texture: Array<Texture> = null
  +textureHead: Texture = null
  --
  +MultiTileSprite()
  +reset(): void
}

class VectorRenderSystem {
  -batch: SpriteBatch
  -camera: OrthographicCamera
  --
  +VectorRenderSystem()
  +update(deltaTime: float): void
  #processEntity(entity: Entity, deltaTime: float): void
}

class Density {
  +density: int = 0
  --
  +Density()
  +reset(): void
}

class RunnerSystem {
  +interval: float
  --
  +RunnerSystem(interval: float)
  #processEntity(runner: Entity): void
}

class ActiveTool {
  +tool: ToolType = ToolType.DEFAULT
  --
  +ActiveTool()
  +reset(): void
}

class PlayerStateSystem {
  -player: Entity
  --
  +PlayerStateSystem()
  +addedToEngine(engine: Engine): void
  +update(deltaTime: float): void
  +removedFromEngine(engine: Engine): void
  +onEvent(event: Event): void
}

class Sprite {
  +texture: Texture = null
  --
  +Sprite()
  +reset(): void
}

class Depth {
  +depth: int = 0
  --
  +Depth()
  +reset(): void
}

class NetworkFlowSystem {
  +interval: float
  -hexDirections: int
  --
  +NetworkFlowSystem(interval: float)
  #processEntity(entity: Entity): void
}

class Mappers {
  +{static} positionCMap: ComponentMapper<Position> = ComponentMapper.getFor(Position.class)
  +{static} spriteCMap: ComponentMapper<Sprite> = ComponentMapper.getFor(Sprite.class)
  +{static} mouseStateCMap: ComponentMapper<MouseState> = ComponentMapper.getFor(MouseState.class)
  +{static} activeToolCMap: ComponentMapper<ActiveTool> = ComponentMapper.getFor(ActiveTool.class)
  +{static} biomeCMap: ComponentMapper<Biome> = ComponentMapper.getFor(Biome.class)
  +{static} depthCMap: ComponentMapper<Depth> = ComponentMapper.getFor(Depth.class)
  +{static} multiTileSpriteCMap: ComponentMapper<MultiTileSprite> = ComponentMapper.getFor(MultiTileSprite.class)
  +{static} multiTilePositionCMap: ComponentMapper<MultiTilePosition> = ComponentMapper.getFor(MultiTilePosition.class)
  +{static} densityCMap: ComponentMapper<Density> = ComponentMapper.getFor(Density.class)
  +{static} nutrientsCMap: ComponentMapper<Nutrients> = ComponentMapper.getFor(Nutrients.class)
  +{static} nutrientCapacityCMap: ComponentMapper<NutrientCapacity> = ComponentMapper.getFor(NutrientCapacity.class)
  +{static} nutrientDrawCMap: ComponentMapper<NutrientDraw> = ComponentMapper.getFor(NutrientDraw.class)
  +{static} extractionCMap: ComponentMapper<Extraction> = ComponentMapper.getFor(Extraction.class)
  +{static} directionCMap: ComponentMapper<Direction> = ComponentMapper.getFor(Direction.class)
  +{static} VectorArrowCMap: ComponentMapper<VectorArrow> = ComponentMapper.getFor(VectorArrow.class)
  +{static} completeCMap: ComponentMapper<Complete> = ComponentMapper.getFor(Complete.class)
}

class NutrientDraw {
  +carbonDraw: int = 0
  +mineralDraw: int = 0
  --
  +NutrientDraw()
  +reset(): void
}

class Position {
  +q: int = 0
  +r: int = 0
  +x: float = 0
  +y: float = 0
  +layer: int = 0
  +tilePosition: TilePosition = null
  --
  +Position()
  +reset(): void
}

class Registry {
  +{static} camera: OrthographicCamera = null
  +{static} spriteBatch: SpriteBatch = null
  +{static} mouse: Entity = null
  +{static} highlighter: Entity = null
  +{static} player: Entity = null
  --
  +{static} init(): void
  +{static} dispose(): void
}

class Complete {
  +complete: boolean = false
  --
  +Complete()
  +reset(): void
}

class MultiTilePosition {
  +points: IntArray = new IntArray()
  +layer: int = 0
  --
  +MultiTilePosition()
  +reset(): void
}

class MouseState {
  +clearSelect: boolean = false
  +pressedDown: boolean = false
  +pressedUp: boolean = false
  +heldDown: boolean = false
  +button: int = -1
  --
  +MouseState()
  +reset(): void
}

class NutrientCapacity {
  +carbonCapacity: int = 0
  +mineralCapacity: int = 0
  --
  +NutrientCapacity()
  +reset(): void
}

class EntityBuilder {
  -{static} theInstance: EntityBuilder = null
  -engine: Engine = null
  --
  -EntityBuilder(e: Engine)
  +createRenderable(q: int, r: int, renderLayer: int, depth: int, tilePosition: TilePosition, texturePath: String): Entity
  +createMycelium(q: int, r: int, density: int, initCarbon: int, initMineral: int): Entity
  +createMyceliumExtractor(q: int, r: int, initCarbon: int, initMineral: int): Entity
  +createMyceliumRunner(startQ: int, startR: int, endQ: int, endR: int): Entity
  +initHighlighter(): Entity
  +initMouse(): Entity
  +initPlayer(): Entity
  +addBiome(b: BiomeType, e: Entity): void
  +addDensity(e: Entity, density: int): void
  +addNutrients(e: Entity, carbonAmount: int, mineralAmount: int): void
  +addNutrients(e: Entity): void
  +addToEngine(e: Entity): void
  +{static} instance(e: Engine): EntityBuilder
  +{static} instance(): EntityBuilder
}

class ActionSystem {
  -highlighter: Entity
  -hexDirections: int
  --
  +ActionSystem()
  +update(deltaTime: float): void
  -defaultAction(mouse: Entity): void
  -neighboringMycelium(p: Position): boolean
  -buildAction(mouse: Entity): void
  #processEntity(mouse: Entity, deltaTime: float): void
}

class FastNoiseLite {
  --
  +FastNoiseLite()
}

class Vector2 {
  +x: float
  +y: float
  --
  +Vector2(x: float, y: float)
}

class Vector3 {
  +x: float
  +y: float
  +z: float
  --
  +Vector3(x: float, y: float, z: float)
}

class MapGenerator {
  -random: Random = null
  -radius: int
  -width: int
  -grid: int
  -thresh: double
  -hexDirections: int = { { 1, 0 }, { 1, -1 }, { 0, -1 }, { -1, 0 }, { -1, 1 }, { 0, 1 } }
  -simplex: FastNoiseLite
  -cellular: FastNoiseLite
  --
  +MapGenerator(radius: int, thresh: double, initialNoiseGrid: int[], rand: Random, seed: int)
  +generate(maxSchellingIterations: int, maxSmoothingIterations: int): int[][]
  -runResourcePass(): int[]
  -getBiomeResourceScalar(biomeTemp: int): float
  -runSchellingPass(): boolean
  -getHappiness(q: int, r: int, selfTemp: int): double
  -getRandomBlankIndex(): int
  -runSmoothingPass(): int[]
  -snapToClosestTemp(target: int, validTemps: int[]): int
  -getIndex(q: int, r: int): int
}

class Map {
  -{static} theInstance: Map = null
  -map: Entity
  -entityBuilder: EntityBuilder = null
  -size: int = 0
  -w: int = 0
  +random: Random = null
  -activeBiomes: BiomeType = null
  -biomeConcentrations: double = null
  -startingArea: int
  -likenessThresh: double = 0
  -seed: int
  --
  -Map()
  +setEntityAt(q: int, r: int, e: Entity, t: TilePosition): void
  +getMapSize(): int
  +getIndex(q: int, r: int): int
  +outOfMapBounds(q: int, r: int): boolean
  +getEntityAt(q: int, r: int, t: TilePosition): Entity
  -weightedBiomeChoice(): int
  +initConfig(size: int, concentrations: double[], activeBiomes: BiomeType[], thresh: double, startingArea: int, seed: int): void
  +initMap(): void
  +{static} instance(): Map
}

class GameHUD {
  +stage: Stage
  -uiSkin: Skin
  --
  +GameHUD()
  +resize(width: int, height: int): void
  +dispose(): void
}

class MenuHUD {
  +stage: Stage
  -uiSkin: Skin
  --
  +MenuHUD()
  +resize(width: int, height: int): void
  +dispose(): void
}

class TextureUtils {
  -{static} textureMap: ObjectMap<String, Texture> = new ObjectMap<>(10)
  -{static} dragToolSpriteHeads: String = { "arrowNE.png", "arrowSE.png", "arrowS.png", "arrowSW.png", "arrowNW.png", "arrowN.png" }
  -{static} dragToolSprites: String = { "topRightPath.png", "topLeftPath.png", "topPath.png", "topRightPath.png", "topLeftPath.png", "topPath.png" }
  --
  -{static} getIndex(q: int, r: int): int
  +{static} pathToTexture(texturePath: String): Texture
  +{static} dirToTexture(key: int, dir: Direction): Texture
  +{static} dirToTexture(key: int, dirVec: int[]): Texture
}

class HexUtils {
  +{static} hexDirections: int = { { 1, 0 }, { 1, -1 }, { 0, -1 }, { -1, 0 }, { -1, 1 }, { 0, 1 } }
  +{static} HEIGHT: float = 52f
  +{static} WIDTH: float = 64f
  +{static} SIZE: float = 30f
  -{static} SQRT_3: float = 1.7320508f
  -{static} X_SCALE: float = 1.5f * SIZE
  -{static} Y_SCALE: float = SQRT_3 * SIZE
  --
  -HexUtils()
  +{static} getPixelX(p: Position): int
  +{static} getPixelX(q: int): int
  +{static} getPixelY(p: Position): int
  +{static} getPixelY(q: int, r: int): int
  +{static} getAxialFromPixel(p: Position): void
  +{static} getAreaAround(p: Position, size: int, output: IntArray): IntArray
  +{static} getAreaAround(centerQ: int, centerR: int, size: int, output: IntArray): IntArray
  +{static} getNeighborsPositions(p: Position, output: IntArray): IntArray
  +{static} getNeighborsPositions(q: int, r: int, output: IntArray): IntArray
}

class Main {
  +assetManager: AssetManager
  --
  +create(): void
  +render(): void
  +dispose(): void
  +onEvent(event: Event): void
}

class ScreenChangeEvent {
  +type: EventType = EventType.SCREEN_CHANGE
  +targetScreen: Screen
  --
  +ScreenChangeEvent()
  +getType(): EventType
  +reset(): void
}

class EventBus {
  -{static} theInstance: EventBus = null
  -observers: ObjectMap<EventType, Array<Observer>>
  --
  -EventBus()
  +{static} instance(): EventBus
  +subscribe(type: EventType, observer: Observer): void
  +publish(event: Event): void
}

class DepthChangeEvent {
  +type: EventType = EventType.DEPTH_CHANGE
  +newDepthDir: int = 0
  --
  +DepthChangeEvent()
  +getType(): EventType
  +reset(): void
}

class EventFactory {
  -{static} theInstance: EventFactory = null
  --
  -EventFactory()
  +{static} instance(): EventFactory
}

class ToolChangeEvent {
  +type: EventType = EventType.TOOL_CHANGE
  +tool: ToolType = null
  --
  +ToolChangeEvent()
  +getType(): EventType
  +reset(): void
}

interface Event {
  ~getType(): EventType
}

GameController *-- Vector3
GameController *-- Vector2
GameScreen *-- GameHUD
GameScreen *-- GameController
MenuScreen *-- MenuHUD
Observer ..> Event
NetworkGrowthSystem ..> Sprite
NetworkGrowthSystem ..> NutrientCapacity
PlayerStateSystem ..|> Observer
PlayerStateSystem ..> Event
Mappers o-- Position
Mappers o-- Sprite
Mappers o-- MouseState
Mappers o-- ActiveTool
Mappers o-- Biome
Mappers o-- Depth
Mappers o-- MultiTileSprite
Mappers o-- MultiTilePosition
Mappers o-- Density
Mappers o-- Nutrients
Mappers o-- NutrientCapacity
Mappers o-- NutrientDraw
Mappers o-- Extraction
Mappers o-- Direction
Mappers o-- VectorArrow
Mappers o-- Complete
EntityBuilder *-- EntityBuilder
ActionSystem ..> Position
FastNoiseLite ..> Vector2
FastNoiseLite ..> Vector3
MapGenerator *-- FastNoiseLite
Map *-- Map
Map *-- EntityBuilder
TextureUtils ..> Direction
HexUtils ..> Position
Main ..|> Observer
Main ..> Event
ScreenChangeEvent ..|> Event
EventBus *-- EventBus
EventBus ..> Observer
EventBus ..> Event
DepthChangeEvent ..|> Event
EventFactory *-- EventFactory
EventFactory o-- ScreenChangeEvent
EventFactory o-- DepthChangeEvent
EventFactory o-- ToolChangeEvent
ToolChangeEvent ..|> Event
@enduml